<svg xmlns="http://www.w3.org/2000/svg" xmlns:xlink="http://www.w3.org/1999/xlink" width="416" height="416" version="1.1" viewBox="0 0 416 416"><title>websites-change-square</title><desc>Created with Sketch.</desc><defs><rect id="path-1" width="76" height="76" x="0" y="0" rx="2"/><rect id="path-3" width="38" height="25" x="33" y="18"/><rect id="path-5" width="76" height="76" x="0" y="0" rx="2"/><rect id="path-7" width="76" height="76" x="0" y="0" rx="2"/><rect id="path-9" width="38" height="25" x="33" y="18"/><rect id="path-11" width="76" height="76" x="0" y="0" rx="2"/><rect id="path-13" width="76" height="76" x="0" y="0" rx="2"/><rect id="path-15" width="76" height="76" x="0" y="0" rx="2"/><rect id="path-17" width="76" height="76" x="0" y="0" rx="2"/><rect id="path-19" width="76" height="76" x="0" y="0" rx="2"/><rect id="path-21" width="76" height="76" x="0" y="0" rx="2"/><rect id="path-23" width="76" height="76" x="0" y="0" rx="2"/><rect id="path-25" width="38" height="25" x="33" y="18"/></defs><g id="Page-1" fill="none" fill-rule="evenodd" stroke="none" stroke-width="1"><g id="websites-change-square"><g id="Group-Copy-10" transform="translate(2.000000, 338.000000)"><mask id="mask-2" fill="#fff"><use xlink:href="#path-1"/></mask><use id="Mask" fill="#FFF" stroke="#2672F2" stroke-width="2" xlink:href="#path-1"/><rect id="Rectangle-323" width="66" height="10" x="5" y="5" fill="#2672F2" mask="url(#mask-2)"/><rect id="Rectangle-323-Copy-6" width="38" height="33" x="5" y="54" fill="#2672F2" mask="url(#mask-2)"/><g id="Group" fill="#2672F2" mask="url(#mask-2)"><g transform="translate(5.000000, 18.000000)"><rect id="Rectangle-323-Copy-2" width="25" height="4" x="0" y="0"/><rect id="Rectangle-323-Copy-3" width="25" height="4" x="0" y="7"/><rect id="Rectangle-323-Copy-4" width="25" height="4" x="0" y="14"/><rect id="Rectangle-323-Copy-5" width="25" height="4" x="0" y="21"/></g></g><path id="Line" stroke="#2672F2" stroke-linecap="square" d="M5.5,48.5 L70.5,48.5" mask="url(#mask-2)"/><g id="Group-Copy-2" fill="#2672F2" mask="url(#mask-2)"><g transform="translate(46.000000, 54.000000)"><rect id="Rectangle-323-Copy-2" width="25" height="4" x="0" y="0"/><rect id="Rectangle-323-Copy-3" width="25" height="4" x="0" y="7"/><rect id="Rectangle-323-Copy-4" width="25" height="4" x="0" y="14"/></g></g><mask id="mask-4" fill="#fff"><use xlink:href="#path-3"/></mask><use id="Mask" fill="#2672F2" xlink:href="#path-3"/><g id="Oval-197-Copy-+-Oval-197-Copy-2-+-Oval-197" fill="#2672F2" stroke="#FFF" mask="url(#mask-4)"><g transform="translate(34.000000, 22.000000)"><path id="Oval-197-Copy" d="M10.1280595,12.3470985 C11.1455116,11.47606 11.7894737,10.1876129 11.7894737,8.75 C11.7894737,6.12664744 9.64515328,4 7,4 C4.35484672,4 2.21052632,6.12664744 2.21052632,8.75 C2.21052632,10.1876129 2.85448839,11.47606 3.87194052,12.3470985 C0,15.1568952 0,23 0,23 L14,23 C14,23 14,15.1568952 10.1280595,12.3470985 Z"/><path id="Oval-197-Copy-2" d="M31.6811938,13.4684566 C32.5532957,12.6891063 33.1052632,11.5362852 33.1052632,10.25 C33.1052632,7.90278981 31.2672742,6 29,6 C26.7327258,6 24.8947368,7.90278981 24.8947368,10.25 C24.8947368,11.5362852 25.4467043,12.6891063 26.3188062,13.4684566 C23,15.9824852 23,23 23,23 L35,23 C35,23 35,15.9824852 31.6811938,13.4684566 Z"/><path id="Oval-197" d="M24.7452236,11.4223453 C26.1260515,10.2303979 27,8.46725978 27,6.5 C27,2.91014913 24.0898509,0 20.5,0 C16.9101491,0 14,2.91014913 14,6.5 C14,8.46725978 14.8739485,10.2303979 16.2547764,11.4223453 C11,15.2673303 11,26 11,26 L30,26 C30,26 30,15.2673303 24.7452236,11.4223453 Z"/></g></g><mask id="mask-6" fill="#fff"><use xlink:href="#path-5"/></mask><use id="Mask-Copy-2" stroke="#2672F2" stroke-width="2" xlink:href="#path-5"/></g><g id="Group-Copy-11" transform="translate(339.000000, 340.000000)"><mask id="mask-8" fill="#fff"><use xlink:href="#path-7"/></mask><use id="Mask" fill="#FFF" stroke="#2672F2" stroke-width="2" xlink:href="#path-7"/><rect id="Rectangle-323" width="66" height="10" x="5" y="5" fill="#2672F2" mask="url(#mask-8)"/><rect id="Rectangle-323-Copy-6" width="38" height="33" x="5" y="54" fill="#2672F2" mask="url(#mask-8)"/><g id="Group" fill="#2672F2" mask="url(#mask-8)"><g transform="translate(5.000000, 18.000000)"><rect id="Rectangle-323-Copy-2" width="25" height="4" x="0" y="0"/><rect id="Rectangle-323-Copy-3" width="25" height="4" x="0" y="7"/><rect id="Rectangle-323-Copy-4" width="25" height="4" x="0" y="14"/><rect id="Rectangle-323-Copy-5" width="25" height="4" x="0" y="21"/></g></g><path id="Line" stroke="#2672F2" stroke-linecap="square" d="M5.5,48.5 L70.5,48.5" mask="url(#mask-8)"/><g id="Group-Copy-2" fill="#2672F2" mask="url(#mask-8)"><g transform="translate(46.000000, 54.000000)"><rect id="Rectangle-323-Copy-2" width="25" height="4" x="0" y="0"/><rect id="Rectangle-323-Copy-3" width="25" height="4" x="0" y="7"/><rect id="Rectangle-323-Copy-4" width="25" height="4" x="0" y="14"/></g></g><mask id="mask-10" fill="#fff"><use xlink:href="#path-9"/></mask><use id="Mask" fill="#2672F2" xlink:href="#path-9"/><g id="Oval-197-Copy-+-Oval-197-Copy-2-+-Oval-197" fill="#2672F2" stroke="#FFF" mask="url(#mask-10)"><g transform="translate(34.000000, 22.000000)"><path id="Oval-197-Copy" d="M10.1280595,12.3470985 C11.1455116,11.47606 11.7894737,10.1876129 11.7894737,8.75 C11.7894737,6.12664744 9.64515328,4 7,4 C4.35484672,4 2.21052632,6.12664744 2.21052632,8.75 C2.21052632,10.1876129 2.85448839,11.47606 3.87194052,12.3470985 C0,15.1568952 0,23 0,23 L14,23 C14,23 14,15.1568952 10.1280595,12.3470985 Z"/><path id="Oval-197-Copy-2" d="M31.6811938,13.4684566 C32.5532957,12.6891063 33.1052632,11.5362852 33.1052632,10.25 C33.1052632,7.90278981 31.2672742,6 29,6 C26.7327258,6 24.8947368,7.90278981 24.8947368,10.25 C24.8947368,11.5362852 25.4467043,12.6891063 26.3188062,13.4684566 C23,15.9824852 23,23 23,23 L35,23 C35,23 35,15.9824852 31.6811938,13.4684566 Z"/><path id="Oval-197" d="M24.7452236,11.4223453 C26.1260515,10.2303979 27,8.46725978 27,6.5 C27,2.91014913 24.0898509,0 20.5,0 C16.9101491,0 14,2.91014913 14,6.5 C14,8.46725978 14.8739485,10.2303979 16.2547764,11.4223453 C11,15.2673303 11,26 11,26 L30,26 C30,26 30,15.2673303 24.7452236,11.4223453 Z"/></g></g><mask id="mask-12" fill="#fff"><use xlink:href="#path-11"/></mask><use id="Mask-Copy-2" stroke="#2672F2" stroke-width="2" xlink:href="#path-11"/></g><g id="Group-Copy-7" transform="translate(226.000000, 2.000000)"><mask id="mask-14" fill="#fff"><use xlink:href="#path-13"/></mask><use id="Mask" fill="#FFF" stroke="#DE6400" stroke-width="2" xlink:href="#path-13"/><g id="Group-Copy-2" mask="url(#mask-14)"><g transform="translate(5.000000, 16.000000)"><g id="Group" fill-rule="evenodd" stroke="none" transform="translate(0.000000, 7.000000)"><rect id="Rectangle-323-Copy-2" width="25" height="4" x="0" y="7" fill="#222"/><rect id="Rectangle-323-Copy-7" width="36" height="4" x="0" y="0" fill="#222"/><rect id="Rectangle-323-Copy-3" width="25" height="4" x="0" y="14" fill="#222"/><rect id="Rectangle-323-Copy-4" width="25" height="4" x="0" y="21" fill="#222"/></g><path id="Line" stroke="#222" stroke-linecap="square" d="M0.5,39.5 L65.5,39.5"/><path id="Line-Copy-33" stroke="#222" stroke-linecap="square" d="M0.5,1.5 L65.5,1.5"/></g></g><g id="Group-Copy-9" mask="url(#mask-14)"><g transform="translate(5.000000, 60.000000)"><rect id="Rectangle-323-Copy-2" width="15" height="4" x="0" y="0" fill="#222"/><rect id="Rectangle-323-Copy-3" width="15" height="4" x="0" y="7" fill="#222"/><rect id="Rectangle-323-Copy-4" width="15" height="4" x="0" y="14" fill="#DE6400"/><rect id="Rectangle-323-Copy-5" width="15" height="4" x="0" y="21" fill="#DE6400"/></g></g><rect id="Rectangle-323" width="56" height="8" x="5" y="5" fill="#222" mask="url(#mask-14)"/><rect id="Rectangle-323-Copy-9" width="8" height="8" x="64" y="5" fill="#222" mask="url(#mask-14)"/><rect id="Rectangle-323-Copy-8" width="45" height="22" x="26" y="60" fill="#222" mask="url(#mask-14)"/><g id="Oval-197-Copy-+-Oval-197-Copy-2-+-Oval-197" fill="#222" stroke="#FFF" mask="url(#mask-14)"><g transform="translate(33.000000, 66.000000)"><path id="Oval-197-Copy" d="M8.97056697,10.9224333 C9.87173886,10.1518993 10.4421053,9.01211912 10.4421053,7.74038462 C10.4421053,5.41972658 8.54285004,3.53846154 6.2,3.53846154 C3.85714996,3.53846154 1.95789474,5.41972658 1.95789474,7.74038462 C1.95789474,9.01211912 2.52826114,10.1518993 3.42943303,10.9224333 C0,13.4080227 0,20.3461538 0,20.3461538 L12.4,20.3461538 C12.4,20.3461538 12.4,13.4080227 8.97056697,10.9224333 Z"/><path id="Oval-197-Copy-2" d="M28.060486,11.9144039 C28.832919,11.2249787 29.3218045,10.2051754 29.3218045,9.06730769 C29.3218045,6.99092945 27.6938715,5.30769231 25.6857143,5.30769231 C23.6775571,5.30769231 22.0496241,6.99092945 22.0496241,9.06730769 C22.0496241,10.2051754 22.5385096,11.2249787 23.3109426,11.9144039 C20.3714286,14.1383523 20.3714286,20.3461538 20.3714286,20.3461538 L31,20.3461538 C31,20.3461538 31,14.1383523 28.060486,11.9144039 Z"/><path id="Oval-197" d="M21.917198,10.1043824 C23.140217,9.04996741 23.9142857,7.49026827 23.9142857,5.75 C23.9142857,2.57436269 21.3367251,0 18.1571429,0 C14.9775607,0 12.4,2.57436269 12.4,5.75 C12.4,7.49026827 13.1740687,9.04996741 14.3970877,10.1043824 C9.74285714,13.5057153 9.74285714,23 9.74285714,23 L26.5714286,23 C26.5714286,23 26.5714286,13.5057153 21.917198,10.1043824 Z"/></g></g><mask id="mask-16" fill="#fff"><use xlink:href="#path-15"/></mask><use id="Mask" stroke="#222" stroke-width="2" xlink:href="#path-15"/><polygon id="Star-5" fill="#222" points="58.5 46.11 56.061 48.76 54.822 45.379 51.555 46.893 51.704 43.296 48.107 43.445 49.621 40.178 46.24 38.939 48.89 36.5 46.24 34.061 49.621 32.822 48.107 29.555 51.704 29.704 51.555 26.107 54.822 27.621 56.061 24.24 58.5 26.89 60.939 24.24 62.178 27.621 65.445 26.107 65.296 29.704 68.893 29.555 67.379 32.822 70.76 34.061 68.11 36.5 70.76 38.939 67.379 40.178 68.893 43.445 65.296 43.296 65.445 46.893 62.178 45.379 60.939 48.76" mask="url(#mask-16)"/></g><g id="Group-Copy-8" transform="translate(339.000000, 2.000000)"><mask id="mask-18" fill="#fff"><use xlink:href="#path-17"/></mask><use id="Mask" fill="#FFF" stroke="#222" stroke-width="2" xlink:href="#path-17"/><text id="404" fill="#222" font-family="Roboto" font-size="28" font-weight="260" mask="url(#mask-18)"><tspan x="14" y="46">404</tspan></text><rect id="Rectangle-323-Copy-2" width="25" height="4" x="26" y="58" fill="#222" mask="url(#mask-18)"/></g><g id="Shape-Copy-7" fill="#DE6400" transform="translate(39.500000, 99.000000) rotate(-90.000000) translate(-39.500000, -99.000000) translate(29.500000, 90.500000)"><path id="Path-241" d="M10.6234388,16.8164063 L19.8425293,8.40820313 L10.6234384,7.10542736e-15 L10.6234384,4.16577844 L13.5195313,6.98133919 L1.75692794e-14,6.98133926 L1.77635684e-14,10.0439453 L13.5195316,10.0439455 L10.6234384,12.6030367 L10.6234388,16.8164063 Z"/></g><g id="Shape-Copy-11" fill="#DE6400" transform="translate(87.000000, 32.000000)"><path id="Path-241" d="M10.6234388,16.8164063 L19.8425293,8.40820313 L10.6234384,7.10542736e-15 L10.6234384,4.16577844 L13.5195313,6.98133919 L1.75692794e-14,6.98133926 L1.77635684e-14,10.0439453 L13.5195316,10.0439455 L10.6234384,12.6030367 L10.6234388,16.8164063 Z"/></g><g id="Shape-Copy-12" fill="#DE6400" transform="translate(199.000000, 32.000000)"><path id="Path-241" d="M10.6234388,16.8164063 L19.8425293,8.40820313 L10.6234384,7.10542736e-15 L10.6234384,4.16577844 L13.5195313,6.98133919 L1.75692794e-14,6.98133926 L1.77635684e-14,10.0439453 L13.5195316,10.0439455 L10.6234384,12.6030367 L10.6234388,16.8164063 Z"/></g><g id="Shape-Copy-13" fill="#DE6400" transform="translate(312.000000, 32.000000)"><path id="Path-241" d="M10.6234388,16.8164063 L19.8425293,8.40820313 L10.6234384,7.10542736e-15 L10.6234384,4.16577844 L13.5195313,6.98133919 L1.75692794e-14,6.98133926 L1.77635684e-14,10.0439453 L13.5195316,10.0439455 L10.6234384,12.6030367 L10.6234388,16.8164063 Z"/></g><g id="Group-Copy-4" transform="translate(114.000000, 2.000000)"><mask id="mask-20" fill="#fff"><use xlink:href="#path-19"/></mask><use id="Mask" fill="#FFF" stroke="#DE6400" stroke-width="2" xlink:href="#path-19"/><rect id="Rectangle-323" width="76" height="7.305" x="29.453" y="10.8" fill="#222" mask="url(#mask-20)"/><rect id="Rectangle-323-Copy" width="66" height="44" x="5" y="52" fill="#222" mask="url(#mask-20)"/><g id="Group-Copy-5" fill="#222" mask="url(#mask-20)"><g transform="translate(5.000000, 11.000000)"><rect id="Rectangle-323-Copy-2" width="32" height="4" x="0" y="13"/><rect id="Rectangle-323-Copy-10" width="32" height="4" x="17" y="0"/><rect id="Rectangle-323-Copy-3" width="32" height="4" x="0" y="20"/><rect id="Rectangle-323-Copy-4" width="32" height="4" x="0" y="27"/><rect id="Rectangle-323-Copy-5" width="32" height="4" x="0" y="34"/></g></g><g id="Group-Copy-6" fill="#222" mask="url(#mask-20)"><g transform="translate(40.000000, 24.000000)"><rect id="Rectangle-323-Copy-2" width="31" height="4" x="0" y="0"/><rect id="Rectangle-323-Copy-3" width="31" height="4" x="0" y="7"/><rect id="Rectangle-323-Copy-4" width="31" height="4" x="0" y="14"/><rect id="Rectangle-323-Copy-5" width="31" height="4" x="0" y="21"/></g></g><g id="Oval-197-Copy-+-Oval-197-Copy-2-+-Oval-197" fill="#222" stroke="#FFF" mask="url(#mask-20)"><g transform="translate(23.000000, 57.000000)"><path id="Oval-197-Copy" d="M8.97056697,10.9224333 C9.87173886,10.1518993 10.4421053,9.01211912 10.4421053,7.74038462 C10.4421053,5.41972658 8.54285004,3.53846154 6.2,3.53846154 C3.85714996,3.53846154 1.95789474,5.41972658 1.95789474,7.74038462 C1.95789474,9.01211912 2.52826114,10.1518993 3.42943303,10.9224333 C0,13.4080227 0,20.3461538 0,20.3461538 L12.4,20.3461538 C12.4,20.3461538 12.4,13.4080227 8.97056697,10.9224333 Z"/><path id="Oval-197-Copy-2" d="M28.060486,11.9144039 C28.832919,11.2249787 29.3218045,10.2051754 29.3218045,9.06730769 C29.3218045,6.99092945 27.6938715,5.30769231 25.6857143,5.30769231 C23.6775571,5.30769231 22.0496241,6.99092945 22.0496241,9.06730769 C22.0496241,10.2051754 22.5385096,11.2249787 23.3109426,11.9144039 C20.3714286,14.1383523 20.3714286,20.3461538 20.3714286,20.3461538 L31,20.3461538 C31,20.3461538 31,14.1383523 28.060486,11.9144039 Z"/><path id="Oval-197" d="M21.917198,10.1043824 C23.140217,9.04996741 23.9142857,7.49026827 23.9142857,5.75 C23.9142857,2.57436269 21.3367251,0 18.1571429,0 C14.9775607,0 12.4,2.57436269 12.4,5.75 C12.4,7.49026827 13.1740687,9.04996741 14.3970877,10.1043824 C9.74285714,13.5057153 9.74285714,23 9.74285714,23 L26.5714286,23 C26.5714286,23 26.5714286,13.5057153 21.917198,10.1043824 Z"/></g></g><mask id="mask-22" fill="#fff"><use xlink:href="#path-21"/></mask><use id="Mask" stroke="#222" stroke-width="2" xlink:href="#path-21"/><polygon id="Star-5" fill="#222" points="11 18.382 9.028 19.716 8.09 17.527 5.71 17.584 6.104 15.236 4.071 13.996 5.673 12.234 4.633 10.092 6.933 9.476 7.216 7.111 9.484 7.836 11 6 12.516 7.836 14.784 7.111 15.067 9.476 17.367 10.092 16.327 12.234 17.929 13.996 15.896 15.236 16.29 17.584 13.91 17.527 12.972 19.716" mask="url(#mask-22)"/></g><g id="Mask-+-Mask-+-Mask-+-Group-+-Group-Copy-2" transform="translate(2.000000, 120.000000)"><g id="Mask-+-Mask-+-Mask" fill="#FFF" stroke="#222" stroke-width="2"><rect id="Mask" width="132" height="170" x="6" y="6" rx="2"/><rect id="Mask" width="132" height="170" x="3" y="3" rx="2"/><rect id="Mask" width="132" height="170" x="0" y="0" rx="2"/></g><g id="Group" transform="translate(18.000000, 19.000000)"><rect id="Rectangle-323-Copy-3" width="98" height="4" x="0" y="0" fill="#222"/><rect id="Rectangle-323-Copy-4" width="98" height="4" x="0" y="7" fill="#222"/><rect id="Rectangle-323-Copy-5" width="98" height="4" x="0" y="14" fill="#222"/><rect id="Rectangle-323-Copy-2" width="98" height="4" x="0" y="21" fill="#222"/><rect id="Rectangle-323-Copy-3" width="98" height="4" x="0" y="28" fill="#222"/><rect id="Rectangle-323-Copy-4" width="66" height="4" x="0" y="35" fill="#222"/><rect id="Rectangle-323-Copy-14" width="37" height="8" x="0" y="43" fill="#DE6400"/><rect id="Rectangle-323-Copy-15" width="37" height="8" x="0" y="55" fill="#2672F2"/></g><g id="Group-Copy" fill="#222" transform="translate(19.000000, 96.000000)"><rect id="Rectangle-323-Copy-2" width="98" height="4" x="0" y="7"/><rect id="Rectangle-323-Copy-11" width="98" height="4" x="0" y="0"/><rect id="Rectangle-323-Copy-3" width="98" height="4" x="0" y="14"/><rect id="Rectangle-323-Copy-4" width="98" height="4" x="0" y="21"/><rect id="Rectangle-323-Copy-5" width="98" height="4" x="0" y="28"/><rect id="Rectangle-323-Copy-2" width="98" height="4" x="0" y="35"/><rect id="Rectangle-323-Copy-3" width="98" height="4" x="0" y="42"/><rect id="Rectangle-323-Copy-4" width="98" height="4" x="0" y="49"/><rect id="Rectangle-323-Copy-5" width="76" height="4" x="0" y="56"/></g></g><g id="Shape-Copy-8" fill="#2672F2" transform="translate(39.500000, 316.000000) rotate(-270.000000) translate(-39.500000, -316.000000) translate(29.500000, 307.500000)"><path id="Path-241" d="M10.7733412,16.8164063 L19.9924316,8.40820313 L10.7733407,7.10542736e-15 L10.7733407,4.16577844 L13.6694336,6.98133919 L0.149902344,6.98133926 L0.149902344,10.0439453 L13.6694339,10.0439455 L10.7733407,12.6030367 L10.7733412,16.8164063 Z"/></g><path id="Line-Copy-10" stroke="#2672F2" stroke-dasharray="1 5" stroke-linecap="round" stroke-width="3" d="M94.5896788,379 L82,379"/><path id="Line-Copy-11" stroke="#2672F2" stroke-dasharray="1 5" stroke-linecap="round" stroke-width="3" d="M335.589679,379 L323,379"/><g id="Group" transform="translate(2.000000, 2.000000)"><mask id="mask-24" fill="#fff"><use xlink:href="#path-23"/></mask><use id="Mask" fill="#FFF" stroke="#222" stroke-width="2" xlink:href="#path-23"/><rect id="Rectangle-323" width="66" height="10" x="5" y="5" fill="#222" mask="url(#mask-24)"/><rect id="Rectangle-323-Copy-6" width="38" height="33" x="5" y="54" fill="#222" mask="url(#mask-24)"/><g fill="#222" mask="url(#mask-24)"><g transform="translate(5.000000, 18.000000)"><rect id="Rectangle-323-Copy-2" width="25" height="4" x="0" y="0"/><rect id="Rectangle-323-Copy-3" width="25" height="4" x="0" y="7"/><rect id="Rectangle-323-Copy-4" width="25" height="4" x="0" y="14"/><rect id="Rectangle-323-Copy-5" width="25" height="4" x="0" y="21"/></g></g><path id="Line" stroke="#222" stroke-linecap="square" d="M5.5,48.5 L70.5,48.5" mask="url(#mask-24)"/><g id="Group-Copy-2" fill="#222" mask="url(#mask-24)"><g transform="translate(46.000000, 54.000000)"><rect id="Rectangle-323-Copy-2" width="25" height="4" x="0" y="0"/><rect id="Rectangle-323-Copy-3" width="25" height="4" x="0" y="7"/><rect id="Rectangle-323-Copy-4" width="25" height="4" x="0" y="14"/></g></g><mask id="mask-26" fill="#fff"><use xlink:href="#path-25"/></mask><use id="Mask" fill="#222" xlink:href="#path-25"/><g id="Oval-197-Copy-+-Oval-197-Copy-2-+-Oval-197" fill="#222" stroke="#FFF" mask="url(#mask-26)"><g transform="translate(34.000000, 22.000000)"><path id="Oval-197-Copy" d="M10.1280595,12.3470985 C11.1455116,11.47606 11.7894737,10.1876129 11.7894737,8.75 C11.7894737,6.12664744 9.64515328,4 7,4 C4.35484672,4 2.21052632,6.12664744 2.21052632,8.75 C2.21052632,10.1876129 2.85448839,11.47606 3.87194052,12.3470985 C0,15.1568952 0,23 0,23 L14,23 C14,23 14,15.1568952 10.1280595,12.3470985 Z"/><path id="Oval-197-Copy-2" d="M31.6811938,13.4684566 C32.5532957,12.6891063 33.1052632,11.5362852 33.1052632,10.25 C33.1052632,7.90278981 31.2672742,6 29,6 C26.7327258,6 24.8947368,7.90278981 24.8947368,10.25 C24.8947368,11.5362852 25.4467043,12.6891063 26.3188062,13.4684566 C23,15.9824852 23,23 23,23 L35,23 C35,23 35,15.9824852 31.6811938,13.4684566 Z"/><path id="Oval-197" d="M24.7452236,11.4223453 C26.1260515,10.2303979 27,8.46725978 27,6.5 C27,2.91014913 24.0898509,0 20.5,0 C16.9101491,0 14,2.91014913 14,6.5 C14,8.46725978 14.8739485,10.2303979 16.2547764,11.4223453 C11,15.2673303 11,26 11,26 L30,26 C30,26 30,15.2673303 24.7452236,11.4223453 Z"/></g></g></g><g id="Rectangle-368-+-perma-logo-orange-copy-10-+-Rectangle-423-+-perma.cc/NG87-3RTY-Copy" transform="translate(99.000000, 364.000000)"><g id="Rectangle-368-+-perma-logo-orange-copy-10" fill="#2D76EE" transform="translate(8.000000, 8.000000)"><path id="perma-logo-orange-copy-8" d="M23.9449876,13.4762531 C22.4326305,13.4762531 20.9108626,12.9574221 19.2927734,11.8900978 C17.7286573,10.8610223 16.257818,9.43879044 14.8351394,8.06339393 C13.2881841,6.56752662 11.6886394,5.02092108 10.0334609,4.0480479 C9.00630907,3.44465318 8.08046085,3.15115199 7.20360371,3.15115199 C5.54759478,3.15115199 4.29430907,3.83937064 3.67430907,5.08961284 C3.40444299,5.63810619 3.26079121,6.28677504 3.26079121,6.96250428 C3.26079121,7.50345195 3.34438049,8.00797216 3.50879121,8.46201433 C4.03136264,9.92197458 5.30402335,10.6911142 7.19031799,10.6911142 C8.06025549,10.6911142 8.99606799,10.3507777 10.0508984,9.65059006 C10.7508894,9.18405847 11.526443,8.54553728 12.4888269,7.64317724 L14.5810501,9.61520339 C13.4838716,10.6440187 12.6144876,11.3561754 11.7622644,11.9241835 C10.1879073,12.969131 8.69326442,13.4762531 7.19031799,13.4762531 C4.05156799,13.4762531 1.62637157,11.9356321 0.702737637,9.3552675 C0.434809066,8.61631061 0.298076923,7.80970274 0.298076923,6.96250428 C0.298076923,5.8704613 0.530023352,4.84554891 0.987273352,3.91638868 C2.10687157,1.65892743 4.37180907,0.366013072 7.20360371,0.366013072 C8.65202335,0.366013072 10.0915859,0.797938577 11.603943,1.68650822 C13.5630323,2.8381361 15.2896216,4.5075542 16.9594698,6.12181072 C18.3467198,7.46338175 19.6570234,8.7302765 20.993068,9.60921888 C22.0971662,10.3375077 23.062318,10.6911142 23.9449876,10.6911142 C25.8722466,10.6911142 27.1565323,9.92249497 27.6591751,8.46825904 C27.8075323,8.03763451 27.8830948,7.55757273 27.8830948,7.04316507 C27.8830948,6.31539661 27.7303091,5.62821874 27.4413448,5.05552716 C26.8138716,3.8091879 25.6051484,3.15115199 23.9449876,3.15115199 C22.969318,3.15115199 21.9684609,3.45844357 20.8859519,4.09045987 C20.2047823,4.48908027 19.477943,5.02430362 18.6650234,5.72631267 C18.6129876,5.77132659 18.5626126,5.81529973 18.5119609,5.85953307 L16.490318,3.82349868 C16.5473359,3.77354103 16.6046305,3.72358338 16.6619251,3.67440632 C17.6107466,2.85478865 18.4812376,2.21704804 19.3218359,1.72527743 C20.888443,0.810427989 22.4005234,0.366013072 23.9449876,0.366013072 C26.7496573,0.366013072 28.9999251,1.64045351 30.118693,3.86304849 C30.5942109,4.80547872 30.8458091,5.90532758 30.8458091,7.04316507 C30.8458091,7.84899235 30.7218091,8.61761159 30.4774073,9.32742652 C29.5792376,11.9260048 27.1374341,13.4762531 23.9449876,13.4762531"/></g><rect id="Rectangle-423" width="220" height="30" x="0" y="0" stroke="#2672F2" stroke-width="2" rx="3"/><text id="perma.cc/NG87-3RTY" fill="#2672F2" font-family="Roboto" font-size="16.92" font-weight="420"><tspan x="44" y="20">perma.cc/NG87-3RTY</tspan></text></g></g></g></svg>