<svg xmlns="http://www.w3.org/2000/svg" xmlns:xlink="http://www.w3.org/1999/xlink" width="551" height="551" version="1.1" viewBox="0 0 551 551"><title>50%-dead</title><desc>Created with Sketch.</desc><g id="Page-1" fill="none" fill-rule="evenodd" stroke="none" stroke-width="1"><g id="50%-dead" stroke-width="2"><circle id="Oval-1-Copy-64" cx="247" cy="519" r="6" stroke="#000" stroke-opacity=".2"/><circle id="Oval-1-Copy-65" cx="267" cy="510" r="6" stroke="#000" stroke-opacity=".2"/><circle id="Oval-1-Copy-66" cx="286" cy="498" r="6" stroke="#000" stroke-opacity=".2"/><circle id="Oval-1-Copy-67" cx="303" cy="484" r="6" stroke="#000" stroke-opacity=".2"/><circle id="Oval-1-Copy-68" cx="317" cy="469" r="6" fill="#D04F02" stroke="#D04F02"/><circle id="Oval-1-Copy-69" cx="329" cy="451" r="6" fill="#D04F02" stroke="#D04F02"/><circle id="Oval-1-Copy-70" cx="338" cy="432" r="6" stroke="#000" stroke-opacity=".2"/><circle id="Oval-1-Copy-71" cx="343" cy="412" r="6" fill="#D04F02" stroke="#D04F02"/><circle id="Oval-1-Copy-72" cx="345" cy="390" r="6" stroke="#000" stroke-opacity=".2"/><circle id="Oval-1-Copy-73" cx="341" cy="366" r="6" fill="#D04F02" stroke="#D04F02"/><circle id="Oval-1-Copy-74" cx="331" cy="340" r="6" stroke="#000" stroke-opacity=".2"/><circle id="Oval-1-Copy-75" cx="310" cy="328" r="6" fill="#D04F02" stroke="#D04F02"/><circle id="Oval-1-Copy-76" cx="333" cy="319" r="6" fill="#D04F02" stroke="#D04F02"/><circle id="Oval-1-Copy-77" cx="327" cy="298" r="6" fill="#D04F02" stroke="#D04F02"/><circle id="Oval-1-Copy-78" cx="306" cy="306" r="6" fill="#D04F02" stroke="#D04F02"/><circle id="Oval-1-Copy-79" cx="287" cy="326" r="6" fill="#D04F02" stroke="#D04F02"/><circle id="Oval-1-Copy-80" cx="302" cy="347" r="6" fill="#D04F02" stroke="#D04F02"/><circle id="Oval-1-Copy-81" cx="321" cy="360" r="6" fill="#D04F02" stroke="#D04F02"/><circle id="Oval-1-Copy-82" cx="324" cy="386" r="6" fill="#D04F02" stroke="#D04F02"/><circle id="Oval-1-Copy-83" cx="321" cy="409" r="6" fill="#D04F02" stroke="#D04F02"/><circle id="Oval-1-Copy-84" cx="314" cy="429" r="6" fill="#D04F02" stroke="#D04F02"/><circle id="Oval-1-Copy-85" cx="304" cy="448" r="6" stroke="#000" stroke-opacity=".2"/><circle id="Oval-1-Copy-86" cx="290" cy="464" r="6" stroke="#000" stroke-opacity=".2"/><circle id="Oval-1-Copy-87" cx="275" cy="478" r="6" fill="#D04F02" stroke="#D04F02"/><circle id="Oval-1-Copy-88" cx="257" cy="490" r="6" fill="#D04F02" stroke="#D04F02"/><circle id="Oval-1-Copy-89" cx="238" cy="500" r="6" stroke="#000" stroke-opacity=".2"/><circle id="Oval-1-Copy-90" cx="216" cy="507" r="6" stroke="#000" stroke-opacity=".2"/><circle id="Oval-1-Copy-91" cx="193" cy="511" r="6" stroke="#000" stroke-opacity=".2"/><circle id="Oval-1-Copy-93" cx="367.059" cy="410.206" r="6" stroke="#000" stroke-opacity=".2" transform="translate(367.058871, 410.206012) rotate(-33.000000) translate(-367.058871, -410.206012)"/><circle id="Oval-1-Copy-76" cx="341.153" cy="280.459" r="6" fill="#D04F02" stroke="#D04F02" transform="translate(341.152910, 280.459290) rotate(-33.000000) translate(-341.152910, -280.459290)"/><circle id="Oval-1-Copy-77" cx="323.683" cy="269.115" r="6" fill="#D04F02" stroke="#D04F02" transform="translate(323.683466, 269.115043) rotate(-33.000000) translate(-323.683466, -269.115043)"/><circle id="Oval-1-Copy-78" cx="307.428" cy="282.262" r="6" fill="#D04F02" stroke="#D04F02" transform="translate(307.428497, 282.261827) rotate(-33.000000) translate(-307.428497, -282.261827)"/><circle id="Oval-1-Copy-79" cx="286.387" cy="298.383" r="6" fill="#D04F02" stroke="#D04F02" transform="translate(286.386537, 298.383380) rotate(-33.000000) translate(-286.386537, -298.383380)"/><circle id="Oval-1-Copy-64" cx="381.955" cy="494.032" r="6" stroke="#000" stroke-opacity=".2" transform="translate(381.955048, 494.032361) rotate(-33.000000) translate(-381.955048, -494.032361)"/><circle id="Oval-1-Copy-65" cx="393.827" cy="475.592" r="6" stroke="#000" stroke-opacity=".2" transform="translate(393.826708, 475.591545) rotate(-33.000000) translate(-393.826708, -475.591545)"/><circle id="Oval-1-Copy-66" cx="403.226" cy="455.179" r="6" stroke="#000" stroke-opacity=".2" transform="translate(403.225780, 455.179357) rotate(-33.000000) translate(-403.225780, -455.179357)"/><circle id="Oval-1-Copy-67" cx="409.858" cy="434.179" r="6" stroke="#000" stroke-opacity=".2" transform="translate(409.858233, 434.179105) rotate(-33.000000) translate(-409.858233, -434.179105)"/><circle id="Oval-1-Copy-68" cx="413.43" cy="413.974" r="6" stroke="#000" stroke-opacity=".2" transform="translate(413.430036, 413.974100) rotate(-33.000000) translate(-413.430036, -413.974100)"/><circle id="Oval-1-Copy-69" cx="413.691" cy="393.342" r="6" stroke="#000" stroke-opacity=".2" transform="translate(413.690580, 393.342361) rotate(-33.000000) translate(-413.690580, -393.342361)"/><circle id="Oval-1-Copy-70" cx="410.89" cy="372.506" r="6" fill="#D04F02" stroke="#D04F02" transform="translate(410.890473, 372.505869) rotate(-33.000000) translate(-410.890473, -372.505869)"/><circle id="Oval-1-Copy-71" cx="404.191" cy="352.009" r="6" stroke="#000" stroke-opacity=".2" transform="translate(404.191046, 352.009263) rotate(-33.000000) translate(-404.191046, -352.009263)"/><circle id="Oval-1-Copy-72" cx="392.886" cy="333.469" r="6" stroke="#000" stroke-opacity=".2" transform="translate(392.886328, 333.469232) rotate(-33.000000) translate(-392.886328, -333.469232)"/><circle id="Oval-1-Copy-73" cx="376.46" cy="315.52" r="6" fill="#D04F02" stroke="#D04F02" transform="translate(376.460309, 315.519695) rotate(-33.000000) translate(-376.460309, -315.519695)"/><circle id="Oval-1-Copy-74" cx="351.913" cy="298.161" r="6" fill="#D04F02" stroke="#D04F02" transform="translate(351.912988, 298.160650) rotate(-33.000000) translate(-351.912988, -298.160650)"/><circle id="Oval-1-Copy-75" cx="362.059" cy="367.206" r="6" fill="#D04F02" stroke="#D04F02" transform="translate(362.058871, 367.206012) rotate(-33.000000) translate(-362.058871, -367.206012)"/><circle id="Oval-1-Copy-92" cx="366.059" cy="388.206" r="6" fill="#D04F02" stroke="#D04F02" transform="translate(366.058871, 388.206012) rotate(-33.000000) translate(-366.058871, -388.206012)"/><circle id="Oval-1-Copy-94" cx="363.059" cy="430.206" r="6" stroke="#000" stroke-opacity=".2" transform="translate(363.058871, 430.206012) rotate(-33.000000) translate(-363.058871, -430.206012)"/><circle id="Oval-1-Copy-95" cx="356.059" cy="450.206" r="6" stroke="#000" stroke-opacity=".2" transform="translate(356.058871, 450.206012) rotate(-33.000000) translate(-356.058871, -450.206012)"/><circle id="Oval-1-Copy-96" cx="346.059" cy="469.206" r="6" stroke="#000" stroke-opacity=".2" transform="translate(346.058871, 469.206012) rotate(-33.000000) translate(-346.058871, -469.206012)"/><circle id="Oval-1-Copy-97" cx="332.059" cy="486.206" r="6" stroke="#000" stroke-opacity=".2" transform="translate(332.058871, 486.206012) rotate(-33.000000) translate(-332.058871, -486.206012)"/><circle id="Oval-1-Copy-98" cx="317.059" cy="501.206" r="6" stroke="#000" stroke-opacity=".2" transform="translate(317.058871, 501.206012) rotate(-33.000000) translate(-317.058871, -501.206012)"/><circle id="Oval-1-Copy-99" cx="299.059" cy="515.206" r="6" stroke="#000" stroke-opacity=".2" transform="translate(299.058871, 515.206012) rotate(-33.000000) translate(-299.058871, -515.206012)"/><circle id="Oval-1-Copy-80" cx="352.3" cy="343.769" r="6" fill="#D04F02" stroke="#D04F02" transform="translate(352.299858, 343.769090) rotate(-33.000000) translate(-352.299858, -343.769090)"/><circle id="Oval-1-Copy-81" cx="356.419" cy="320.38" r="6" stroke="#000" stroke-opacity=".2" transform="translate(356.419063, 320.380452) rotate(-33.000000) translate(-356.419063, -320.380452)"/><circle id="Oval-1-Copy-82" cx="374.096" cy="340.552" r="6" fill="#D04F02" stroke="#D04F02" transform="translate(374.095690, 340.551970) rotate(-33.000000) translate(-374.095690, -340.551970)"/><circle id="Oval-1-Copy-83" cx="384.106" cy="361.475" r="6" fill="#D04F02" stroke="#D04F02" transform="translate(384.106376, 361.475310) rotate(-33.000000) translate(-384.106376, -361.475310)"/><circle id="Oval-1-Copy-84" cx="389.128" cy="383.061" r="6" fill="#D04F02" stroke="#D04F02" transform="translate(389.128463, 383.061195) rotate(-33.000000) translate(-389.128463, -383.061195)"/><circle id="Oval-1-Copy-85" cx="391.09" cy="403.442" r="6" stroke="#000" stroke-opacity=".2" transform="translate(391.089899, 403.442326) rotate(-33.000000) translate(-391.089899, -403.442326)"/><circle id="Oval-1-Copy-86" cx="388.063" cy="424.486" r="6" stroke="#000" stroke-opacity=".2" transform="translate(388.062735, 424.486001) rotate(-33.000000) translate(-388.062735, -424.486001)"/><circle id="Oval-1-Copy-87" cx="383.108" cy="444.397" r="6" fill="#D04F02" stroke="#D04F02" transform="translate(383.107623, 444.396975) rotate(-33.000000) translate(-383.107623, -444.396975)"/><circle id="Oval-1-Copy-88" cx="374.547" cy="464.265" r="6" fill="#D04F02" stroke="#D04F02" transform="translate(374.547221, 464.264524) rotate(-33.000000) translate(-374.547221, -464.264524)"/><circle id="Oval-1-Copy-89" cx="364.059" cy="482.999" r="6" fill="#D04F02" stroke="#D04F02" transform="translate(364.058871, 482.999372) rotate(-33.000000) translate(-364.058871, -482.999372)"/><circle id="Oval-1-Copy-90" cx="349.421" cy="500.852" r="6" stroke="#000" stroke-opacity=".2" transform="translate(349.420592, 500.852124) rotate(-33.000000) translate(-349.420592, -500.852124)"/><circle id="Oval-1-Copy-91" cx="332.31" cy="516.734" r="6" stroke="#000" stroke-opacity=".2" transform="translate(332.309725, 516.733504) rotate(-33.000000) translate(-332.309725, -516.733504)"/><circle id="Oval-1-Copy-64" cx="480.608" cy="401.396" r="6" stroke="#000" stroke-opacity=".2" transform="translate(480.607523, 401.395831) rotate(-66.000000) translate(-480.607523, -401.395831)"/><circle id="Oval-1-Copy-65" cx="480.52" cy="380.464" r="6" stroke="#000" stroke-opacity=".2" transform="translate(480.520347, 380.464292) rotate(-66.000000) translate(-480.520347, -380.464292)"/><circle id="Oval-1-Copy-66" cx="478.286" cy="358.226" r="6" stroke="#000" stroke-opacity=".2" transform="translate(478.285798, 358.226088) rotate(-66.000000) translate(-478.285798, -358.226088)"/><circle id="Oval-1-Copy-67" cx="472.411" cy="338.002" r="6" stroke="#000" stroke-opacity=".2" transform="translate(472.410684, 338.001502) rotate(-66.000000) translate(-472.410684, -338.001502)"/><circle id="Oval-1-Copy-68" cx="464.402" cy="318.111" r="6" fill="#D04F02" stroke="#D04F02" transform="translate(464.401815, 318.110816) rotate(-66.000000) translate(-464.401815, -318.110816)"/><circle id="Oval-1-Copy-69" cx="453.383" cy="300.666" r="6" stroke="#000" stroke-opacity=".2" transform="translate(453.383476, 300.665682) rotate(-66.000000) translate(-453.383476, -300.665682)"/><circle id="Oval-1-Copy-70" cx="438.687" cy="284.716" r="6" fill="#D04F02" stroke="#D04F02" transform="translate(438.686742, 284.715777) rotate(-66.000000) translate(-438.686742, -284.715777)"/><circle id="Oval-1-Copy-71" cx="421.905" cy="272.175" r="6" fill="#D04F02" stroke="#D04F02"/><circle id="Oval-1-Copy-72" cx="402.326" cy="261.783" r="6" stroke="#000" stroke-opacity=".2" transform="translate(402.326319, 261.782658) rotate(-66.000000) translate(-402.326319, -261.782658)"/><circle id="Oval-1-Copy-73" cx="377.774" cy="255.675" r="6" stroke="#000" stroke-opacity=".2" transform="translate(377.774281, 255.675161) rotate(-66.000000) translate(-377.774281, -255.675161)"/><circle id="Oval-1-Copy-74" cx="347.733" cy="255.486" r="6" fill="#D04F02" stroke="#D04F02" transform="translate(347.732753, 255.486070) rotate(-66.000000) translate(-347.732753, -255.486070)"/><circle id="Oval-1-Copy-75" cx="394.847" cy="305.867" r="6" fill="#D04F02" stroke="#D04F02" transform="translate(394.846605, 305.866539) rotate(-66.000000) translate(-394.846605, -305.866539)"/><path id="Oval-1-Copy-92" stroke="#000" stroke-opacity=".2" d="M409.638707,327.300065 C412.952415,327.300065 415.638707,324.613773 415.638707,321.300065 C415.638707,317.986356 412.952415,315.300065 409.638707,315.300065 C406.324999,315.300065 403.638707,317.986356 403.638707,321.300065 C403.638707,324.613773 406.324999,327.300065 409.638707,327.300065 Z" transform="translate(409.638707, 321.300065) rotate(-66.000000) translate(-409.638707, -321.300065)"/><path id="Oval-1-Copy-100" fill="#D04F02" stroke="#D04F02" d="M422.638707,345.300065 C425.952415,345.300065 428.638707,342.613773 428.638707,339.300065 C428.638707,335.986356 425.952415,333.300065 422.638707,333.300065 C419.324999,333.300065 416.638707,335.986356 416.638707,339.300065 C416.638707,342.613773 419.324999,345.300065 422.638707,345.300065 Z" transform="translate(422.638707, 339.300065) rotate(-66.000000) translate(-422.638707, -339.300065)"/><circle id="Oval-1-Copy-94" cx="429.998" cy="358.158" r="6" stroke="#000" stroke-opacity=".2" transform="translate(429.997535, 358.158145) rotate(-66.000000) translate(-429.997535, -358.158145)"/><circle id="Oval-1-Copy-95" cx="435.02" cy="378.744" r="6" stroke="#000" stroke-opacity=".2" transform="translate(435.019621, 378.744030) rotate(-66.000000) translate(-435.019621, -378.744030)"/><circle id="Oval-1-Copy-96" cx="436.981" cy="400.125" r="6" stroke="#000" stroke-opacity=".2" transform="translate(436.981057, 400.125161) rotate(-66.000000) translate(-436.981057, -400.125161)"/><circle id="Oval-1-Copy-97" cx="434.499" cy="422.008" r="6" fill="#D04F02" stroke="#D04F02" transform="translate(434.498533, 422.007507) rotate(-66.000000) translate(-434.498533, -422.007507)"/><circle id="Oval-1-Copy-98" cx="430.088" cy="442.757" r="6" stroke="#000" stroke-opacity=".2" transform="translate(430.088060, 442.757151) rotate(-66.000000) translate(-430.088060, -442.757151)"/><circle id="Oval-1-Copy-99" cx="422.617" cy="464.302" r="6" stroke="#000" stroke-opacity=".2" transform="translate(422.616936, 464.302042) rotate(-66.000000) translate(-422.616936, -464.302042)"/><circle id="Oval-1-Copy-80" cx="373.897" cy="291.526" r="6" stroke="#000" stroke-opacity=".2" transform="translate(373.897345, 291.525822) rotate(-66.000000) translate(-373.897345, -291.525822)"/><circle id="Oval-1-Copy-81" cx="362.614" cy="270.667" r="6" fill="#D04F02" stroke="#D04F02"/><circle id="Oval-1-Copy-82" cx="389.425" cy="277.957" r="6" fill="#D04F02" stroke="#D04F02" transform="translate(389.424699, 277.956857) rotate(-66.000000) translate(-389.424699, -277.956857)"/><circle id="Oval-1-Copy-83" cx="410.216" cy="290.052" r="6" stroke="#000" stroke-opacity=".2" transform="translate(410.216035, 290.052436) rotate(-66.000000) translate(-410.216035, -290.052436)"/><circle id="Oval-1-Copy-84" cx="426.184" cy="304.421" r="6" fill="#D04F02" stroke="#D04F02" transform="translate(426.184426, 304.420658) rotate(-66.000000) translate(-426.184426, -304.420658)"/><circle id="Oval-1-Copy-85" cx="438.93" cy="321.445" r="6" fill="#D04F02" stroke="#D04F02"/><circle id="Oval-1-Copy-86" cx="447.852" cy="339.743" r="6" stroke="#000" stroke-opacity=".2" transform="translate(447.852199, 339.742860) rotate(-66.000000) translate(-447.852199, -339.742860)"/><circle id="Oval-1-Copy-87" cx="454.541" cy="360.14" r="6" fill="#D04F02" stroke="#D04F02" transform="translate(454.540786, 360.140355) rotate(-66.000000) translate(-454.540786, -360.140355)"/><circle id="Oval-1-Copy-88" cx="458.182" cy="380.465" r="6" stroke="#000" stroke-opacity=".2" transform="translate(458.182071, 380.465013) rotate(-66.000000) translate(-458.182071, -380.465013)"/><circle id="Oval-1-Copy-89" cx="459.59" cy="401.89" r="6" stroke="#000" stroke-opacity=".2" transform="translate(459.589530, 401.889743) rotate(-66.000000) translate(-459.589530, -401.889743)"/><circle id="Oval-1-Copy-90" cx="457.036" cy="424.835" r="6" stroke="#000" stroke-opacity=".2" transform="translate(457.036142, 424.834900) rotate(-66.000000) translate(-457.036142, -424.834900)"/><circle id="Oval-1-Copy-91" cx="451.335" cy="447.473" r="6" stroke="#000" stroke-opacity=".2" transform="translate(451.335381, 447.473392) rotate(-66.000000) translate(-451.335381, -447.473392)"/><circle id="Oval-1-Copy-65" cx="515.938" cy="273.538" r="6" stroke="#000" stroke-opacity=".2" transform="translate(515.938041, 273.538398) rotate(-90.000000) translate(-515.938041, -273.538398)"/><circle id="Oval-1-Copy-66" cx="503.938" cy="254.538" r="6" stroke="#000" stroke-opacity=".2" transform="translate(503.938041, 254.538398) rotate(-90.000000) translate(-503.938041, -254.538398)"/><circle id="Oval-1-Copy-67" cx="489.938" cy="237.538" r="6" stroke="#000" stroke-opacity=".2" transform="translate(489.938041, 237.538398) rotate(-90.000000) translate(-489.938041, -237.538398)"/><circle id="Oval-1-Copy-68" cx="473.938" cy="222.538" r="6" stroke="#000" stroke-opacity=".2" transform="translate(473.938041, 222.538398) rotate(-90.000000) translate(-473.938041, -222.538398)"/><circle id="Oval-1-Copy-69" cx="455.777" cy="211.083" r="6" stroke="#000" stroke-opacity=".2" transform="translate(455.776712, 211.083037) rotate(-90.000000) translate(-455.776712, -211.083037)"/><circle id="Oval-1-Copy-70" cx="437.777" cy="203.083" r="6" fill="#D04F02" stroke="#D04F02" transform="translate(437.776712, 203.083037) rotate(-90.000000) translate(-437.776712, -203.083037)"/><circle id="Oval-1-Copy-71" cx="416.938" cy="197.538" r="6" stroke="#000" stroke-opacity=".2" transform="translate(416.938041, 197.538398) rotate(-90.000000) translate(-416.938041, -197.538398)"/><circle id="Oval-1-Copy-72" cx="395.232" cy="195.922" r="6" stroke="#000" stroke-opacity=".2" transform="translate(395.232072, 195.921708) rotate(-90.000000) translate(-395.232072, -195.921708)"/><circle id="Oval-1-Copy-73" cx="372.232" cy="198.922" r="6" stroke="#000" stroke-opacity=".2" transform="translate(372.232072, 198.921708) rotate(-90.000000) translate(-372.232072, -198.921708)"/><circle id="Oval-1-Copy-74" cx="349.304" cy="206.054" r="6" fill="#D04F02" stroke="#D04F02" transform="translate(349.304124, 206.054410) rotate(-90.000000) translate(-349.304124, -206.054410)"/><circle id="Oval-1-Copy-101" cx="370.304" cy="218.054" r="6" stroke="#000" stroke-opacity=".2" transform="translate(370.304124, 218.054410) rotate(-90.000000) translate(-370.304124, -218.054410)"/><circle id="Oval-1-Copy-102" cx="343.304" cy="227.054" r="6" fill="#D04F02" stroke="#D04F02" transform="translate(343.304124, 227.054410) rotate(-90.000000) translate(-343.304124, -227.054410)"/><circle id="Oval-1-Copy-103" cx="329.304" cy="247.054" r="6" fill="#D04F02" stroke="#D04F02" transform="translate(329.304124, 247.054410) rotate(-90.000000) translate(-329.304124, -247.054410)"/><circle id="Oval-1-Copy-104" cx="322.304" cy="224.054" r="6" fill="#D04F02" stroke="#D04F02" transform="translate(322.304124, 224.054410) rotate(-90.000000) translate(-322.304124, -224.054410)"/><circle id="Oval-1-Copy-105" cx="326.304" cy="201.054" r="6" fill="#D04F02" stroke="#D04F02" transform="translate(326.304124, 201.054410) rotate(-90.000000) translate(-326.304124, -201.054410)"/><circle id="Oval-1-Copy-75" cx="411.736" cy="243.15" r="6" fill="#D04F02" stroke="#D04F02" transform="translate(411.736280, 243.150155) rotate(-90.000000) translate(-411.736280, -243.150155)"/><path id="Oval-1-Copy-92" stroke="#000" stroke-opacity=".2" d="M431.526918,256.232893 C434.840627,256.232893 437.526918,253.546601 437.526918,250.232893 C437.526918,246.919184 434.840627,244.232893 431.526918,244.232893 C428.21321,244.232893 425.526918,246.919184 425.526918,250.232893 C425.526918,253.546601 428.21321,256.232893 431.526918,256.232893 Z" transform="translate(431.526918, 250.232893) rotate(-90.000000) translate(-431.526918, -250.232893)"/><path id="Oval-1-Copy-100" stroke="#000" stroke-opacity=".2" d="M448.724269,268.389135 C452.037977,268.389135 454.724269,265.702843 454.724269,262.389135 C454.724269,259.075426 452.037977,256.389135 448.724269,256.389135 C445.41056,256.389135 442.724269,259.075426 442.724269,262.389135 C442.724269,265.702843 445.41056,268.389135 448.724269,268.389135 Z" transform="translate(448.724269, 262.389135) rotate(-90.000000) translate(-448.724269, -262.389135)"/><circle id="Oval-1-Copy-94" cx="464.117" cy="277.624" r="6" fill="#D04F02" stroke="#D04F02" transform="translate(464.117165, 277.623744) rotate(-90.000000) translate(-464.117165, -277.623744)"/><circle id="Oval-1-Copy-95" cx="477.078" cy="294.387" r="6" stroke="#000" stroke-opacity=".2" transform="translate(477.078103, 294.387219) rotate(-90.000000) translate(-477.078103, -294.387219)"/><circle id="Oval-1-Copy-96" cx="487.181" cy="313" r="6" stroke="#000" stroke-opacity=".2" transform="translate(487.180596, 313.000000) rotate(-90.000000) translate(-487.180596, -313.000000)"/><circle id="Oval-1-Copy-97" cx="495.199" cy="334.122" r="6" stroke="#000" stroke-opacity=".2" transform="translate(495.198907, 334.122318) rotate(-90.000000) translate(-495.198907, -334.122318)"/><circle id="Oval-1-Copy-98" cx="500.609" cy="354.872" r="6" stroke="#000" stroke-opacity=".2" transform="translate(500.609380, 354.871962) rotate(-90.000000) translate(-500.609380, -354.871962)"/><circle id="Oval-1-Copy-99" cx="502.547" cy="377.593" r="6" stroke="#000" stroke-opacity=".2" transform="translate(502.547265, 377.592978) rotate(-90.000000) translate(-502.547265, -377.592978)"/><circle id="Oval-1-Copy-80" cx="388.765" cy="237.57" r="6" fill="#D04F02" stroke="#D04F02" transform="translate(388.765284, 237.570090) rotate(-90.000000) translate(-388.765284, -237.570090)"/><circle id="Oval-1-Copy-81" cx="362.393" cy="238.377" r="6" fill="#D04F02" stroke="#D04F02" transform="translate(362.393402, 238.377069) rotate(-90.000000) translate(-362.393402, -238.377069)"/><circle id="Oval-1-Copy-82" cx="394.938" cy="217.538" r="6" fill="#D04F02" stroke="#D04F02" transform="translate(394.938041, 217.538398) rotate(-90.000000) translate(-394.938041, -217.538398)"/><circle id="Oval-1-Copy-83" cx="415.938" cy="220.538" r="6" fill="#D04F02" stroke="#D04F02" transform="translate(415.938041, 220.538398) rotate(-90.000000) translate(-415.938041, -220.538398)"/><circle id="Oval-1-Copy-84" cx="436.777" cy="228.083" r="6" stroke="#000" stroke-opacity=".2" transform="translate(436.776712, 228.083037) rotate(-90.000000) translate(-436.776712, -228.083037)"/><circle id="Oval-1-Copy-85" cx="453.938" cy="237.538" r="6" stroke="#000" stroke-opacity=".2" transform="translate(453.938041, 237.538398) rotate(-90.000000) translate(-453.938041, -237.538398)"/><circle id="Oval-1-Copy-86" cx="470.938" cy="250.538" r="6" fill="#D04F02" stroke="#D04F02" transform="translate(470.938041, 250.538398) rotate(-90.000000) translate(-470.938041, -250.538398)"/><circle id="Oval-1-Copy-87" cx="485.938" cy="266.538" r="6" stroke="#000" stroke-opacity=".2" transform="translate(485.938041, 266.538398) rotate(-90.000000) translate(-485.938041, -266.538398)"/><circle id="Oval-1-Copy-88" cx="497.938" cy="284.538" r="6" stroke="#000" stroke-opacity=".2" transform="translate(497.938041, 284.538398) rotate(-90.000000) translate(-497.938041, -284.538398)"/><circle id="Oval-1-Copy-89" cx="507.938" cy="304.538" r="6" stroke="#000" stroke-opacity=".2" transform="translate(507.938041, 304.538398) rotate(-90.000000) translate(-507.938041, -304.538398)"/><circle id="Oval-1-Copy-90" cx="515.938" cy="325.538" r="6" stroke="#000" stroke-opacity=".2" transform="translate(515.938041, 325.538398) rotate(-90.000000) translate(-515.938041, -325.538398)"/><circle id="Oval-1-Copy-65" cx="476.181" cy="144.629" r="6" stroke="#000" stroke-opacity=".2" transform="translate(476.180596, 144.629472) rotate(-123.000000) translate(-476.180596, -144.629472)"/><circle id="Oval-1-Copy-66" cx="455.768" cy="136.23" r="6" stroke="#000" stroke-opacity=".2" transform="translate(455.768407, 136.230399) rotate(-123.000000) translate(-455.768407, -136.230399)"/><circle id="Oval-1-Copy-67" cx="434.768" cy="129.598" r="6" fill="#D04F02" stroke="#D04F02" transform="translate(434.768156, 129.597946) rotate(-123.000000) translate(-434.768156, -129.597946)"/><circle id="Oval-1-Copy-68" cx="413.563" cy="126.026" r="6" stroke="#000" stroke-opacity=".2" transform="translate(413.563151, 126.026144) rotate(-123.000000) translate(-413.563151, -126.026144)"/><circle id="Oval-1-Copy-69" cx="391.931" cy="125.766" r="6" fill="#D04F02" stroke="#D04F02" transform="translate(391.931412, 125.765599) rotate(-123.000000) translate(-391.931412, -125.765599)"/><circle id="Oval-1-Copy-70" cx="371.835" cy="129.404" r="6" stroke="#000" stroke-opacity=".2" transform="translate(371.835187, 129.403581) rotate(-123.000000) translate(-371.835187, -129.403581)"/><circle id="Oval-1-Copy-71" cx="351.598" cy="135.265" r="6" stroke="#000" stroke-opacity=".2" transform="translate(351.598313, 135.265134) rotate(-123.000000) translate(-351.598313, -135.265134)"/><circle id="Oval-1-Copy-72" cx="332.058" cy="146.57" r="6" fill="#D04F02" stroke="#D04F02" transform="translate(332.058283, 146.569852) rotate(-123.000000) translate(-332.058283, -146.569852)"/><circle id="Oval-1-Copy-73" cx="316.109" cy="160.996" r="6" fill="#D04F02" stroke="#D04F02" transform="translate(316.108745, 160.995871) rotate(-123.000000) translate(-316.108745, -160.995871)"/><circle id="Oval-1-Copy-74" cx="299.75" cy="181.543" r="6" fill="#D04F02" stroke="#D04F02" transform="translate(299.749701, 181.543191) rotate(-123.000000) translate(-299.749701, -181.543191)"/><circle id="Oval-1-Copy-75" cx="370.795" cy="176.397" r="6" fill="#D04F02" stroke="#D04F02" transform="translate(370.795062, 176.397308) rotate(-123.000000) translate(-370.795062, -176.397308)"/><path id="Oval-1-Copy-92" stroke="#000" stroke-opacity=".2" d="M392.795062,178.397308 C396.108771,178.397308 398.795062,175.711017 398.795062,172.397308 C398.795062,169.0836 396.108771,166.397308 392.795062,166.397308 C389.481354,166.397308 386.795062,169.0836 386.795062,172.397308 C386.795062,175.711017 389.481354,178.397308 392.795062,178.397308 Z" transform="translate(392.795062, 172.397308) rotate(-123.000000) translate(-392.795062, -172.397308)"/><path id="Oval-1-Copy-100" fill="#D04F02" stroke="#D04F02" d="M413.97144,179.298094 C417.285149,179.298094 419.97144,176.611802 419.97144,173.298094 C419.97144,169.984385 417.285149,167.298094 413.97144,167.298094 C410.657732,167.298094 407.97144,169.984385 407.97144,173.298094 C407.97144,176.611802 410.657732,179.298094 413.97144,179.298094 Z" transform="translate(413.971440, 173.298094) rotate(-123.000000) translate(-413.971440, -173.298094)"/><circle id="Oval-1-Copy-94" cx="433.795" cy="176.397" r="6" stroke="#000" stroke-opacity=".2" transform="translate(433.795062, 176.397308) rotate(-123.000000) translate(-433.795062, -176.397308)"/><circle id="Oval-1-Copy-95" cx="453.795" cy="183.397" r="6" stroke="#000" stroke-opacity=".2" transform="translate(453.795062, 183.397308) rotate(-123.000000) translate(-453.795062, -183.397308)"/><circle id="Oval-1-Copy-96" cx="472.795" cy="194.397" r="6" stroke="#000" stroke-opacity=".2" transform="translate(472.795062, 194.397308) rotate(-123.000000) translate(-472.795062, -194.397308)"/><circle id="Oval-1-Copy-97" cx="490.795" cy="206.397" r="6" stroke="#000" stroke-opacity=".2" transform="translate(490.795062, 206.397308) rotate(-123.000000) translate(-490.795062, -206.397308)"/><circle id="Oval-1-Copy-98" cx="505.795" cy="221.397" r="6" fill="#D04F02" stroke="#D04F02" transform="translate(505.795062, 221.397308) rotate(-123.000000) translate(-505.795062, -221.397308)"/><circle id="Oval-1-Copy-99" cx="519.795" cy="239.397" r="6" stroke="#000" stroke-opacity=".2" transform="translate(519.795062, 239.397308) rotate(-123.000000) translate(-519.795062, -239.397308)"/><circle id="Oval-1-Copy-80" cx="348.358" cy="186.156" r="6" fill="#D04F02" stroke="#D04F02" transform="translate(348.358141, 186.156322) rotate(-123.000000) translate(-348.358141, -186.156322)"/><circle id="Oval-1-Copy-81" cx="322.97" cy="181.037" r="6" fill="#D04F02" stroke="#D04F02" transform="translate(322.969503, 181.037116) rotate(-123.000000) translate(-322.969503, -181.037116)"/><circle id="Oval-1-Copy-82" cx="344.141" cy="165.36" r="6" stroke="#000" stroke-opacity=".2" transform="translate(344.141020, 165.360490) rotate(-123.000000) translate(-344.141020, -165.360490)"/><circle id="Oval-1-Copy-83" cx="363.064" cy="155.35" r="6" stroke="#000" stroke-opacity=".2" transform="translate(363.064361, 155.349804) rotate(-123.000000) translate(-363.064361, -155.349804)"/><circle id="Oval-1-Copy-84" cx="383.65" cy="150.328" r="6" stroke="#000" stroke-opacity=".2" transform="translate(383.650245, 150.327717) rotate(-123.000000) translate(-383.650245, -150.327717)"/><circle id="Oval-1-Copy-85" cx="405.031" cy="149.366" r="6" fill="#D04F02" stroke="#D04F02" transform="translate(405.031376, 149.366281) rotate(-123.000000) translate(-405.031376, -149.366281)"/><circle id="Oval-1-Copy-86" cx="426.075" cy="151.393" r="6" stroke="#000" stroke-opacity=".2" transform="translate(426.075052, 151.393444) rotate(-123.000000) translate(-426.075052, -151.393444)"/><circle id="Oval-1-Copy-87" cx="446.986" cy="156.349" r="6" stroke="#000" stroke-opacity=".2" transform="translate(446.986025, 156.348556) rotate(-123.000000) translate(-446.986025, -156.348556)"/><circle id="Oval-1-Copy-88" cx="465.854" cy="164.909" r="6" fill="#D04F02" stroke="#D04F02" transform="translate(465.853575, 164.908958) rotate(-123.000000) translate(-465.853575, -164.908958)"/><circle id="Oval-1-Copy-89" cx="485.588" cy="175.397" r="6" stroke="#000" stroke-opacity=".2" transform="translate(485.588422, 175.397308) rotate(-123.000000) translate(-485.588422, -175.397308)"/><circle id="Oval-1-Copy-90" cx="503.441" cy="189.036" r="6" stroke="#000" stroke-opacity=".2" transform="translate(503.441175, 189.035588) rotate(-123.000000) translate(-503.441175, -189.035588)"/><circle id="Oval-1-Copy-64" cx="396.765" cy="58.668" r="6" stroke="#000" stroke-opacity=".2" transform="translate(396.764651, 58.667560) rotate(-156.000000) translate(-396.764651, -58.667560)"/><circle id="Oval-1-Copy-65" cx="374.833" cy="58.755" r="6" stroke="#000" stroke-opacity=".2" transform="translate(374.833112, 58.754736) rotate(-156.000000) translate(-374.833112, -58.754736)"/><circle id="Oval-1-Copy-66" cx="352.595" cy="61.989" r="6" fill="#D04F02" stroke="#D04F02" transform="translate(352.594908, 61.989286) rotate(-156.000000) translate(-352.594908, -61.989286)"/><circle id="Oval-1-Copy-67" cx="331.37" cy="68.864" r="6" stroke="#000" stroke-opacity=".2" transform="translate(331.370323, 68.864399) rotate(-156.000000) translate(-331.370323, -68.864399)"/><circle id="Oval-1-Copy-68" cx="311.48" cy="76.873" r="6" stroke="#000" stroke-opacity=".2" transform="translate(311.479637, 76.873268) rotate(-156.000000) translate(-311.479637, -76.873268)"/><circle id="Oval-1-Copy-69" cx="294.035" cy="88.892" r="6" stroke="#000" stroke-opacity=".2" transform="translate(294.034502, 88.891607) rotate(-156.000000) translate(-294.034502, -88.891607)"/><circle id="Oval-1-Copy-70" cx="278.085" cy="102.588" r="6" fill="#D04F02" stroke="#D04F02" transform="translate(278.084597, 102.588341) rotate(-156.000000) translate(-278.084597, -102.588341)"/><circle id="Oval-1-Copy-71" cx="264.543" cy="119.37" r="6" fill="#D04F02" stroke="#D04F02" transform="translate(264.543466, 119.370206) rotate(-156.000000) translate(-264.543466, -119.370206)"/><circle id="Oval-1-Copy-72" cx="255.151" cy="137.949" r="6" stroke="#000" stroke-opacity=".2" transform="translate(255.151479, 137.948765) rotate(-156.000000) translate(-255.151479, -137.948765)"/><circle id="Oval-1-Copy-73" cx="249.044" cy="160.501" r="6" fill="#D04F02" stroke="#D04F02" transform="translate(249.043981, 160.500802) rotate(-156.000000) translate(-249.043981, -160.500802)"/><circle id="Oval-1-Copy-74" cx="246.855" cy="187.542" r="6" fill="#D04F02" stroke="#D04F02" transform="translate(246.854890, 187.542331) rotate(-156.000000) translate(-246.854890, -187.542331)"/><circle id="Oval-1-Copy-75" cx="302.235" cy="144.428" r="6" fill="#D04F02" stroke="#D04F02" transform="translate(302.235359, 144.428478) rotate(-156.000000) translate(-302.235359, -144.428478)"/><path id="Oval-1-Copy-92" stroke="#000" stroke-opacity=".2" d="M317.668885,134.636376 C320.982593,134.636376 323.668885,131.950085 323.668885,128.636376 C323.668885,125.322668 320.982593,122.636376 317.668885,122.636376 C314.355176,122.636376 311.668885,125.322668 311.668885,128.636376 C311.668885,131.950085 314.355176,134.636376 317.668885,134.636376 Z" transform="translate(317.668885, 128.636376) rotate(-156.000000) translate(-317.668885, -128.636376)"/><path id="Oval-1-Copy-100" stroke="#000" stroke-opacity=".2" d="M335.668885,123.636376 C338.982593,123.636376 341.668885,120.950085 341.668885,117.636376 C341.668885,114.322668 338.982593,111.636376 335.668885,111.636376 C332.355176,111.636376 329.668885,114.322668 329.668885,117.636376 C329.668885,120.950085 332.355176,123.636376 335.668885,123.636376 Z" transform="translate(335.668885, 117.636376) rotate(-156.000000) translate(-335.668885, -117.636376)"/><circle id="Oval-1-Copy-94" cx="355.527" cy="109.278" r="6" stroke="#000" stroke-opacity=".2" transform="translate(355.526966, 109.277549) rotate(-156.000000) translate(-355.526966, -109.277549)"/><circle id="Oval-1-Copy-95" cx="376.113" cy="104.255" r="6" stroke="#000" stroke-opacity=".2" transform="translate(376.112850, 104.255462) rotate(-156.000000) translate(-376.112850, -104.255462)"/><circle id="Oval-1-Copy-96" cx="397.494" cy="102.294" r="6" stroke="#000" stroke-opacity=".2" transform="translate(397.493981, 102.294026) rotate(-156.000000) translate(-397.493981, -102.294026)"/><circle id="Oval-1-Copy-97" cx="418.376" cy="103.777" r="6" stroke="#000" stroke-opacity=".2" transform="translate(418.376328, 103.776550) rotate(-156.000000) translate(-418.376328, -103.776550)"/><circle id="Oval-1-Copy-98" cx="441.126" cy="108.187" r="6" stroke="#000" stroke-opacity=".2" transform="translate(441.125972, 108.187023) rotate(-156.000000) translate(-441.125972, -108.187023)"/><circle id="Oval-1-Copy-99" cx="462.671" cy="114.658" r="6" stroke="#000" stroke-opacity=".2" transform="translate(462.670862, 114.658147) rotate(-156.000000) translate(-462.670862, -114.658147)"/><circle id="Oval-1-Copy-80" cx="289.895" cy="163.378" r="6" fill="#D04F02" stroke="#D04F02" transform="translate(289.894642, 163.377738) rotate(-156.000000) translate(-289.894642, -163.377738)"/><circle id="Oval-1-Copy-81" cx="266.036" cy="172.661" r="6" stroke="#000" stroke-opacity=".2" transform="translate(266.035800, 172.661447) rotate(-156.000000) translate(-266.035800, -172.661447)"/><circle id="Oval-1-Copy-106" cx="279.036" cy="189.661" r="6" fill="#D04F02" stroke="#D04F02" transform="translate(279.035800, 189.661447) rotate(-156.000000) translate(-279.035800, -189.661447)"/><circle id="Oval-1-Copy-107" cx="286.036" cy="212.661" r="6" fill="#D04F02" stroke="#D04F02" transform="translate(286.035800, 212.661447) rotate(-156.000000) translate(-286.035800, -212.661447)"/><circle id="Oval-1-Copy-108" cx="305.036" cy="202.661" r="6" fill="#D04F02" stroke="#D04F02" transform="translate(305.035800, 202.661447) rotate(-156.000000) translate(-305.035800, -202.661447)"/><circle id="Oval-1-Copy-109" cx="302.036" cy="229.661" r="6" fill="#D04F02" stroke="#D04F02" transform="translate(302.035800, 229.661447) rotate(-156.000000) translate(-302.035800, -229.661447)"/><circle id="Oval-1-Copy-110" cx="306.036" cy="249.661" r="6" fill="#D04F02" stroke="#D04F02" transform="translate(306.035800, 249.661447) rotate(-156.000000) translate(-306.035800, -249.661447)"/><circle id="Oval-1-Copy-111" cx="284.036" cy="248.661" r="6" fill="#D04F02" stroke="#D04F02" transform="translate(284.035800, 248.661447) rotate(-156.000000) translate(-284.035800, -248.661447)"/><circle id="Oval-1-Copy-112" cx="273.036" cy="230.661" r="6" fill="#D04F02" stroke="#D04F02" transform="translate(273.035800, 230.661447) rotate(-156.000000) translate(-273.035800, -230.661447)"/><circle id="Oval-1-Copy-113" cx="262.036" cy="203.661" r="6" stroke="#000" stroke-opacity=".2" transform="translate(262.035800, 203.661447) rotate(-156.000000) translate(-262.035800, -203.661447)"/><circle id="Oval-1-Copy-114" cx="235.036" cy="205.661" r="6" fill="#D04F02" stroke="#D04F02" transform="translate(235.035800, 205.661447) rotate(-156.000000) translate(-235.035800, -205.661447)"/><circle id="Oval-1-Copy-115" cx="230.036" cy="226.661" r="6" fill="#D04F02" stroke="#D04F02" transform="translate(230.035800, 226.661447) rotate(-156.000000) translate(-230.035800, -226.661447)"/><circle id="Oval-1-Copy-116" cx="208.036" cy="240.661" r="6" fill="#D04F02" stroke="#D04F02" transform="translate(208.035800, 240.661447) rotate(-156.000000) translate(-208.035800, -240.661447)"/><circle id="Oval-1-Copy-117" cx="217.036" cy="259.661" r="6" fill="#D04F02" stroke="#D04F02" transform="translate(217.035800, 259.661447) rotate(-156.000000) translate(-217.035800, -259.661447)"/><circle id="Oval-1-Copy-118" cx="234.036" cy="246.661" r="6" fill="#D04F02" stroke="#D04F02" transform="translate(234.035800, 246.661447) rotate(-156.000000) translate(-234.035800, -246.661447)"/><circle id="Oval-1-Copy-119" cx="254.036" cy="222.661" r="6" fill="#D04F02" stroke="#D04F02" transform="translate(254.035800, 222.661447) rotate(-156.000000) translate(-254.035800, -222.661447)"/><circle id="Oval-1-Copy-120" cx="256.036" cy="246.661" r="6" fill="#D04F02" stroke="#D04F02" transform="translate(256.035800, 246.661447) rotate(-156.000000) translate(-256.035800, -246.661447)"/><circle id="Oval-1-Copy-121" cx="256.036" cy="267.661" r="6" fill="#D04F02" stroke="#D04F02" transform="translate(256.035800, 267.661447) rotate(-156.000000) translate(-256.035800, -267.661447)"/><circle id="Oval-1-Copy-122" cx="292.036" cy="269.661" r="6" fill="#D04F02" stroke="#D04F02" transform="translate(292.035800, 269.661447) rotate(-156.000000) translate(-292.035800, -269.661447)"/><circle id="Oval-1-Copy-123" cx="270.036" cy="285.661" r="6" fill="#D04F02" stroke="#D04F02" transform="translate(270.035800, 285.661447) rotate(-156.000000) translate(-270.035800, -285.661447)"/><circle id="Oval-1-Copy-124" cx="271.036" cy="312.661" r="6" fill="#D04F02" stroke="#D04F02" transform="translate(271.035800, 312.661447) rotate(-156.000000) translate(-271.035800, -312.661447)"/><circle id="Oval-1-Copy-125" cx="246.036" cy="311.661" r="6" fill="#D04F02" stroke="#D04F02" transform="translate(246.035800, 311.661447) rotate(-156.000000) translate(-246.035800, -311.661447)"/><circle id="Oval-1-Copy-126" cx="249.036" cy="289.661" r="6" fill="#D04F02" stroke="#D04F02" transform="translate(249.035800, 289.661447) rotate(-156.000000) translate(-249.035800, -289.661447)"/><circle id="Oval-1-Copy-127" cx="234.036" cy="273.661" r="6" fill="#D04F02" stroke="#D04F02" transform="translate(234.035800, 273.661447) rotate(-156.000000) translate(-234.035800, -273.661447)"/><circle id="Oval-1-Copy-128" cx="224.036" cy="291.661" r="6" fill="#D04F02" stroke="#D04F02" transform="translate(224.035800, 291.661447) rotate(-156.000000) translate(-224.035800, -291.661447)"/><circle id="Oval-1-Copy-129" cx="205.036" cy="282.661" r="6" stroke="#000" stroke-opacity=".2" transform="translate(205.035800, 282.661447) rotate(-156.000000) translate(-205.035800, -282.661447)"/><circle id="Oval-1-Copy-130" cx="225.036" cy="315.661" r="6" stroke="#000" stroke-opacity=".2" transform="translate(225.035800, 315.661447) rotate(-156.000000) translate(-225.035800, -315.661447)"/><circle id="Oval-1-Copy-131" cx="256.036" cy="330.661" r="6" fill="#D04F02" stroke="#D04F02" transform="translate(256.035800, 330.661447) rotate(-156.000000) translate(-256.035800, -330.661447)"/><circle id="Oval-1-Copy-132" cx="259.036" cy="355.661" r="6" fill="#D04F02" stroke="#D04F02" transform="translate(259.035800, 355.661447) rotate(-156.000000) translate(-259.035800, -355.661447)"/><circle id="Oval-1-Copy-134" cx="276.036" cy="343.661" r="6" stroke="#000" stroke-opacity=".2" transform="translate(276.035800, 343.661447) rotate(-156.000000) translate(-276.035800, -343.661447)"/><circle id="Oval-1-Copy-135" cx="288.036" cy="363.661" r="6" fill="#D04F02" stroke="#D04F02" transform="translate(288.035800, 363.661447) rotate(-156.000000) translate(-288.035800, -363.661447)"/><circle id="Oval-1-Copy-136" cx="304.036" cy="377.661" r="6" stroke="#000" stroke-opacity=".2" transform="translate(304.035800, 377.661447) rotate(-156.000000) translate(-304.035800, -377.661447)"/><circle id="Oval-1-Copy-137" cx="300.036" cy="401.661" r="6" stroke="#000" stroke-opacity=".2" transform="translate(300.035800, 401.661447) rotate(-156.000000) translate(-300.035800, -401.661447)"/><circle id="Oval-1-Copy-138" cx="282.036" cy="390.661" r="6" fill="#D04F02" stroke="#D04F02" transform="translate(282.035800, 390.661447) rotate(-156.000000) translate(-282.035800, -390.661447)"/><circle id="Oval-1-Copy-151" cx="272.036" cy="411.661" r="6" stroke="#000" stroke-opacity=".2" transform="translate(272.035800, 411.661447) rotate(-156.000000) translate(-272.035800, -411.661447)"/><circle id="Oval-1-Copy-152" cx="259.036" cy="428.661" r="6" fill="#D04F02" stroke="#D04F02" transform="translate(259.035800, 428.661447) rotate(-156.000000) translate(-259.035800, -428.661447)"/><circle id="Oval-1-Copy-153" cx="243.036" cy="443.661" r="6" stroke="#000" stroke-opacity=".2" transform="translate(243.035800, 443.661447) rotate(-156.000000) translate(-243.035800, -443.661447)"/><circle id="Oval-1-Copy-154" cx="226.036" cy="453.661" r="6" stroke="#000" stroke-opacity=".2" transform="translate(226.035800, 453.661447) rotate(-156.000000) translate(-226.035800, -453.661447)"/><circle id="Oval-1-Copy-155" cx="206.036" cy="462.661" r="6" stroke="#000" stroke-opacity=".2" transform="translate(206.035800, 462.661447) rotate(-156.000000) translate(-206.035800, -462.661447)"/><circle id="Oval-1-Copy-156" cx="186.036" cy="467.661" r="6" fill="#D04F02" stroke="#D04F02" transform="translate(186.035800, 467.661447) rotate(-156.000000) translate(-186.035800, -467.661447)"/><circle id="Oval-1-Copy-157" cx="164.036" cy="470.661" r="6" stroke="#000" stroke-opacity=".2" transform="translate(164.035800, 470.661447) rotate(-156.000000) translate(-164.035800, -470.661447)"/><circle id="Oval-1-Copy-158" cx="142.036" cy="470.661" r="6" stroke="#000" stroke-opacity=".2" transform="translate(142.035800, 470.661447) rotate(-156.000000) translate(-142.035800, -470.661447)"/><circle id="Oval-1-Copy-159" cx="119.036" cy="466.661" r="6" stroke="#000" stroke-opacity=".2" transform="translate(119.035800, 466.661447) rotate(-156.000000) translate(-119.035800, -466.661447)"/><circle id="Oval-1-Copy-160" cx="166.036" cy="492.661" r="6" stroke="#000" stroke-opacity=".2" transform="translate(166.035800, 492.661447) rotate(-156.000000) translate(-166.035800, -492.661447)"/><circle id="Oval-1-Copy-161" cx="188.036" cy="490.661" r="6" stroke="#000" stroke-opacity=".2" transform="translate(188.035800, 490.661447) rotate(-156.000000) translate(-188.035800, -490.661447)"/><circle id="Oval-1-Copy-162" cx="210.036" cy="485.661" r="6" stroke="#000" stroke-opacity=".2" transform="translate(210.035800, 485.661447) rotate(-156.000000) translate(-210.035800, -485.661447)"/><circle id="Oval-1-Copy-163" cx="230.036" cy="478.661" r="6" fill="#D04F02" stroke="#D04F02" transform="translate(230.035800, 478.661447) rotate(-156.000000) translate(-230.035800, -478.661447)"/><circle id="Oval-1-Copy-164" cx="249.036" cy="468.661" r="6" stroke="#000" stroke-opacity=".2" transform="translate(249.035800, 468.661447) rotate(-156.000000) translate(-249.035800, -468.661447)"/><circle id="Oval-1-Copy-165" cx="266.036" cy="455.661" r="6" stroke="#000" stroke-opacity=".2" transform="translate(266.035800, 455.661447) rotate(-156.000000) translate(-266.035800, -455.661447)"/><circle id="Oval-1-Copy-166" cx="281.036" cy="440.661" r="6" fill="#D04F02" stroke="#D04F02" transform="translate(281.035800, 440.661447) rotate(-156.000000) translate(-281.035800, -440.661447)"/><circle id="Oval-1-Copy-167" cx="292.036" cy="422.661" r="6" fill="#D04F02" stroke="#D04F02" transform="translate(292.035800, 422.661447) rotate(-156.000000) translate(-292.035800, -422.661447)"/><circle id="Oval-1-Copy-133" cx="236.036" cy="360.661" r="6" fill="#D04F02" stroke="#D04F02" transform="translate(236.035800, 360.661447) rotate(-156.000000) translate(-236.035800, -360.661447)"/><circle id="Oval-1-Copy-82" cx="273.326" cy="148.85" r="6" fill="#D04F02" stroke="#D04F02" transform="translate(273.325677, 148.850384) rotate(-156.000000) translate(-273.325677, -148.850384)"/><circle id="Oval-1-Copy-83" cx="285.421" cy="130.059" r="6" stroke="#000" stroke-opacity=".2" transform="translate(285.421256, 130.059049) rotate(-156.000000) translate(-285.421256, -130.059049)"/><circle id="Oval-1-Copy-84" cx="299.789" cy="114.091" r="6" fill="#D04F02" stroke="#D04F02" transform="translate(299.789478, 114.090657) rotate(-156.000000) translate(-299.789478, -114.090657)"/><circle id="Oval-1-Copy-85" cx="316.814" cy="101.345" r="6" fill="#D04F02" stroke="#D04F02" transform="translate(316.814258, 101.345299) rotate(-156.000000) translate(-316.814258, -101.345299)"/><circle id="Oval-1-Copy-86" cx="335.112" cy="91.423" r="6" stroke="#000" stroke-opacity=".2" transform="translate(335.111681, 91.422885) rotate(-156.000000) translate(-335.111681, -91.422885)"/><circle id="Oval-1-Copy-87" cx="355.509" cy="84.734" r="6" stroke="#000" stroke-opacity=".2" transform="translate(355.509176, 84.734298) rotate(-156.000000) translate(-355.509176, -84.734298)"/><circle id="Oval-1-Copy-88" cx="376.834" cy="81.093" r="6" fill="#D04F02" stroke="#D04F02" transform="translate(376.833834, 81.093012) rotate(-156.000000) translate(-376.833834, -81.093012)"/><circle id="Oval-1-Copy-89" cx="399.259" cy="79.686" r="6" fill="#D04F02" stroke="#D04F02" transform="translate(399.258564, 79.685554) rotate(-156.000000) translate(-399.258564, -79.685554)"/><circle id="Oval-1-Copy-90" cx="420.204" cy="82.239" r="6" stroke="#000" stroke-opacity=".2" transform="translate(420.203720, 82.238942) rotate(-156.000000) translate(-420.203720, -82.238942)"/><circle id="Oval-1-Copy-64" cx="261.034" cy="28.778" r="6" fill="#D04F02" stroke="#D04F02" transform="translate(261.034182, 28.777510) rotate(-189.000000) translate(-261.034182, -28.777510)"/><circle id="Oval-1-Copy-65" cx="242.688" cy="40.795" r="6" stroke="#000" stroke-opacity=".2" transform="translate(242.688326, 40.795394) rotate(-189.000000) translate(-242.688326, -40.795394)"/><circle id="Oval-1-Copy-66" cx="226.799" cy="55.62" r="6" stroke="#000" stroke-opacity=".2" transform="translate(226.799461, 55.619909) rotate(-189.000000) translate(-226.799461, -55.619909)"/><circle id="Oval-1-Copy-67" cx="212.199" cy="72.107" r="6" stroke="#000" stroke-opacity=".2" transform="translate(212.198841, 72.106932) rotate(-189.000000) translate(-212.198841, -72.106932)"/><circle id="Oval-1-Copy-68" cx="200.718" cy="90.112" r="6" fill="#D04F02" stroke="#D04F02" transform="translate(200.717722, 90.112340) rotate(-189.000000) translate(-200.717722, -90.112340)"/><circle id="Oval-1-Copy-69" cx="191.088" cy="109.854" r="6" stroke="#000" stroke-opacity=".2" transform="translate(191.088019, 109.854398) rotate(-189.000000) translate(-191.088019, -109.854398)"/><circle id="Oval-1-Copy-70" cx="186.171" cy="129.028" r="6" stroke="#000" stroke-opacity=".2" transform="translate(186.171078, 129.028386) rotate(-189.000000) translate(-186.171078, -129.028386)"/><circle id="Oval-1-Copy-71" cx="183.955" cy="150.478" r="6" stroke="#000" stroke-opacity=".2" transform="translate(183.954589, 150.477871) rotate(-189.000000) translate(-183.954589, -150.477871)"/><circle id="Oval-1-Copy-72" cx="186.852" cy="173.28" r="6" fill="#D04F02" stroke="#D04F02" transform="translate(186.852023, 173.279650) rotate(-189.000000) translate(-186.852023, -173.279650)"/><circle id="Oval-1-Copy-73" cx="193.446" cy="195.092" r="6" fill="#D04F02" stroke="#D04F02" transform="translate(193.446233, 195.091857) rotate(-189.000000) translate(-193.446233, -195.091857)"/><circle id="Oval-1-Copy-74" cx="207.811" cy="218.934" r="6" fill="#D04F02" stroke="#D04F02" transform="translate(207.810767, 218.934428) rotate(-189.000000) translate(-207.810767, -218.934428)"/><circle id="Oval-1-Copy-75" cx="228.625" cy="152.732" r="6" fill="#D04F02" stroke="#D04F02" transform="translate(228.625321, 152.731649) rotate(-189.000000) translate(-228.625321, -152.731649)"/><path id="Oval-1-Copy-92" stroke="#000" stroke-opacity=".2" d="M233.512608,136.920248 C236.826317,136.920248 239.512608,134.233957 239.512608,130.920248 C239.512608,127.60654 236.826317,124.920248 233.512608,124.920248 C230.1989,124.920248 227.512608,127.60654 227.512608,130.920248 C227.512608,134.233957 230.1989,136.920248 233.512608,136.920248 Z" transform="translate(233.512608, 130.920248) rotate(-189.000000) translate(-233.512608, -130.920248)"/><path id="Oval-1-Copy-100" stroke="#000" stroke-opacity=".2" d="M242.528371,118.214028 C245.84208,118.214028 248.528371,115.527737 248.528371,112.214028 C248.528371,108.90032 245.84208,106.214028 242.528371,106.214028 C239.214663,106.214028 236.528371,108.90032 236.528371,112.214028 C236.528371,115.527737 239.214663,118.214028 242.528371,118.214028 Z" transform="translate(242.528371, 112.214028) rotate(-189.000000) translate(-242.528371, -112.214028)"/><circle id="Oval-1-Copy-94" cx="254.336" cy="94.772" r="6" stroke="#000" stroke-opacity=".2" transform="translate(254.336184, 94.771549) rotate(-189.000000) translate(-254.336184, -94.771549)"/><circle id="Oval-1-Copy-95" cx="268.866" cy="79.348" r="6" stroke="#000" stroke-opacity=".2" transform="translate(268.865735, 79.347796) rotate(-189.000000) translate(-268.865735, -79.347796)"/><circle id="Oval-1-Copy-96" cx="285.729" cy="67.058" r="6" fill="#D04F02" stroke="#D04F02" transform="translate(285.729186, 67.057799) rotate(-189.000000) translate(-285.729186, -67.057799)"/><circle id="Oval-1-Copy-97" cx="303.433" cy="55.222" r="6" stroke="#000" stroke-opacity=".2" transform="translate(303.433345, 55.221839) rotate(-189.000000) translate(-303.433345, -55.221839)"/><circle id="Oval-1-Copy-98" cx="324.238" cy="46.62" r="6" stroke="#000" stroke-opacity=".2" transform="translate(324.237576, 46.619707) rotate(-189.000000) translate(-324.237576, -46.619707)"/><circle id="Oval-1-Copy-99" cx="346.376" cy="41.151" r="6" stroke="#000" stroke-opacity=".2" transform="translate(346.375708, 41.151330) rotate(-189.000000) translate(-346.375708, -41.151330)"/><circle id="Oval-1-Copy-80" cx="229.008" cy="177.112" r="6" fill="#D04F02" stroke="#D04F02" transform="translate(229.007968, 177.111691) rotate(-189.000000) translate(-229.007968, -177.111691)"/><circle id="Oval-1-Copy-81" cx="213.732" cy="196.803" r="6" fill="#D04F02" stroke="#D04F02" transform="translate(213.731870, 196.802843) rotate(-189.000000) translate(-213.731870, -196.802843)"/><circle id="Oval-1-Copy-82" cx="207.788" cy="172.186" r="6" fill="#D04F02" stroke="#D04F02" transform="translate(207.787964, 172.185513) rotate(-189.000000) translate(-207.787964, -172.185513)"/><circle id="Oval-1-Copy-83" cx="206.153" cy="149.999" r="6" fill="#D04F02" stroke="#D04F02" transform="translate(206.153036, 149.999378) rotate(-189.000000) translate(-206.153036, -149.999378)"/><circle id="Oval-1-Copy-84" cx="210.345" cy="128.237" r="6" fill="#D04F02" stroke="#D04F02" transform="translate(210.344902, 128.237024) rotate(-189.000000) translate(-210.344902, -128.237024)"/><circle id="Oval-1-Copy-85" cx="217.843" cy="108.82" r="6" stroke="#000" stroke-opacity=".2" transform="translate(217.842794, 108.820147) rotate(-189.000000) translate(-217.842794, -108.820147)"/><circle id="Oval-1-Copy-86" cx="228.167" cy="90.827" r="6" stroke="#000" stroke-opacity=".2" transform="translate(228.167479, 90.827051) rotate(-189.000000) translate(-228.167479, -90.827051)"/><circle id="Oval-1-Copy-87" cx="240.793" cy="73.653" r="6" stroke="#000" stroke-opacity=".2" transform="translate(240.792722, 73.652897) rotate(-189.000000) translate(-240.792722, -73.652897)"/><circle id="Oval-1-Copy-88" cx="256.694" cy="58.985" r="6" stroke="#000" stroke-opacity=".2" transform="translate(256.693898, 58.984816) rotate(-189.000000) translate(-256.693898, -58.984816)"/><circle id="Oval-1-Copy-89" cx="274.896" cy="46.136" r="6" stroke="#000" stroke-opacity=".2" transform="translate(274.895632, 46.135678) rotate(-189.000000) translate(-274.895632, -46.135678)"/><circle id="Oval-1-Copy-90" cx="294.53" cy="35.78" r="6" stroke="#000" stroke-opacity=".2" transform="translate(294.529734, 35.780302) rotate(-189.000000) translate(-294.529734, -35.780302)"/><circle id="Oval-1-Copy-64" cx="131.581" cy="75.957" r="6" stroke="#000" stroke-opacity=".2" transform="translate(131.580734, 75.956583) rotate(-222.000000) translate(-131.580734, -75.956583)"/><circle id="Oval-1-Copy-65" cx="122.74" cy="96.027" r="6" stroke="#000" stroke-opacity=".2" transform="translate(122.740013, 96.027498) rotate(-222.000000) translate(-122.740013, -96.027498)"/><circle id="Oval-1-Copy-66" cx="116.65" cy="117.659" r="6" stroke="#000" stroke-opacity=".2" transform="translate(116.649829, 117.658718) rotate(-222.000000) translate(-116.649829, -117.658718)"/><circle id="Oval-1-Copy-67" cx="113.384" cy="139.438" r="6" fill="#D04F02" stroke="#D04F02" transform="translate(113.384195, 139.437966) rotate(-222.000000) translate(-113.384195, -139.437966)"/><circle id="Oval-1-Copy-68" cx="115.017" cy="160.953" r="6" stroke="#000" stroke-opacity=".2" transform="translate(115.017127, 160.952967) rotate(-222.000000) translate(-115.017127, -160.952967)"/><circle id="Oval-1-Copy-69" cx="117.987" cy="182.371" r="6" stroke="#000" stroke-opacity=".2" transform="translate(117.987305, 182.371452) rotate(-222.000000) translate(-117.987305, -182.371452)"/><circle id="Oval-1-Copy-70" cx="124.012" cy="202.513" r="6" stroke="#000" stroke-opacity=".2" transform="translate(124.012483, 202.513380) rotate(-222.000000) translate(-124.012483, -202.513380)"/><circle id="Oval-1-Copy-71" cx="134.836" cy="220.71" r="6" stroke="#000" stroke-opacity=".2" transform="translate(134.835806, 220.709617) rotate(-222.000000) translate(-134.835806, -220.709617)"/><circle id="Oval-1-Copy-72" cx="147.902" cy="237.253" r="6" fill="#D04F02" stroke="#D04F02" transform="translate(147.901643, 237.252942) rotate(-222.000000) translate(-147.901643, -237.252942)"/><circle id="Oval-1-Copy-73" cx="166.933" cy="252.412" r="6" stroke="#000" stroke-opacity=".2" transform="translate(166.933357, 252.411895) rotate(-222.000000) translate(-166.933357, -252.411895)"/><circle id="Oval-1-Copy-74" cx="191.894" cy="264.717" r="6" stroke="#000" stroke-opacity=".2" transform="translate(191.894012, 264.717174) rotate(-222.000000) translate(-191.894012, -264.717174)"/><circle id="Oval-1-Copy-75" cx="173.072" cy="199.109" r="6" stroke="#000" stroke-opacity=".2" transform="translate(173.071968, 199.109042) rotate(-222.000000) translate(-173.071968, -199.109042)"/><path id="Oval-1-Copy-92" stroke="#000" stroke-opacity=".2" d="M163.836091,183.993324 C167.149799,183.993324 169.836091,181.307033 169.836091,177.993324 C169.836091,174.679616 167.149799,171.993324 163.836091,171.993324 C160.522382,171.993324 157.836091,174.679616 157.836091,177.993324 C157.836091,181.307033 160.522382,183.993324 163.836091,183.993324 Z" transform="translate(163.836091, 177.993324) rotate(-222.000000) translate(-163.836091, -177.993324)"/><path id="Oval-1-Copy-100" stroke="#000" stroke-opacity=".2" d="M161.28126,163.26193 C164.594968,163.26193 167.28126,160.575638 167.28126,157.26193 C167.28126,153.948221 164.594968,151.26193 161.28126,151.26193 C157.967551,151.26193 155.28126,153.948221 155.28126,157.26193 C155.28126,160.575638 157.967551,163.26193 161.28126,163.26193 Z" transform="translate(161.281260, 157.261930) rotate(-222.000000) translate(-161.281260, -157.261930)"/><circle id="Oval-1-Copy-94" cx="161.229" cy="136.041" r="6" fill="#D04F02" stroke="#D04F02" transform="translate(161.228908, 136.041111) rotate(-222.000000) translate(-161.228908, -136.041111)"/><circle id="Oval-1-Copy-95" cx="165.014" cy="115.192" r="6" fill="#D04F02" stroke="#D04F02" transform="translate(165.014038, 115.192302) rotate(-222.000000) translate(-165.014038, -115.192302)"/><circle id="Oval-1-Copy-96" cx="171.919" cy="94.862" r="6" fill="#D04F02" stroke="#D04F02" transform="translate(171.918666, 94.861879) rotate(-222.000000) translate(-171.918666, -94.861879)"/><circle id="Oval-1-Copy-97" cx="182.087" cy="75.881" r="6" stroke="#000" stroke-opacity=".2" transform="translate(182.086917, 75.881095) rotate(-222.000000) translate(-182.086917, -75.881095)"/><circle id="Oval-1-Copy-98" cx="194.556" cy="58.719" r="6" stroke="#000" stroke-opacity=".2" transform="translate(194.555725, 58.719253) rotate(-222.000000) translate(-194.555725, -58.719253)"/><circle id="Oval-1-Copy-99" cx="210.144" cy="42.076" r="6" stroke="#000" stroke-opacity=".2" transform="translate(210.144033, 42.075796) rotate(-222.000000) translate(-210.144033, -42.075796)"/><circle id="Oval-1-Copy-80" cx="186.377" cy="220.731" r="6" fill="#D04F02" stroke="#D04F02" transform="translate(186.377174, 220.730770) rotate(-222.000000) translate(-186.377174, -220.730770)"/><circle id="Oval-1-Copy-81" cx="185.967" cy="243.476" r="6" fill="#D04F02" stroke="#D04F02" transform="translate(185.967472, 243.475841) rotate(-222.000000) translate(-185.967472, -243.475841)"/><circle id="Oval-1-Copy-82" cx="166.353" cy="226.318" r="6" fill="#D04F02" stroke="#D04F02" transform="translate(166.352953, 226.317901) rotate(-222.000000) translate(-166.352953, -226.317901)"/><circle id="Oval-1-Copy-83" cx="152.192" cy="208.218" r="6" fill="#D04F02" stroke="#D04F02" transform="translate(152.192384, 208.218179) rotate(-222.000000) translate(-152.192384, -208.218179)"/><circle id="Oval-1-Copy-84" cx="143.855" cy="187.684" r="6" fill="#D04F02" stroke="#D04F02" transform="translate(143.855351, 187.683679) rotate(-222.000000) translate(-143.855351, -187.683679)"/><circle id="Oval-1-Copy-85" cx="138.73" cy="166.86" r="6" stroke="#000" stroke-opacity=".2" transform="translate(138.729752, 166.860310) rotate(-222.000000) translate(-138.729752, -166.860310)"/><circle id="Oval-1-Copy-86" cx="136.428" cy="145.602" r="6" fill="#D04F02" stroke="#D04F02" transform="translate(136.427690, 145.602164) rotate(-222.000000) translate(-136.427690, -145.602164)"/><circle id="Oval-1-Copy-87" cx="138.207" cy="125.161" r="6" stroke="#000" stroke-opacity=".2" transform="translate(138.207034, 125.161178) rotate(-222.000000) translate(-138.207034, -125.161178)"/><circle id="Oval-1-Copy-88" cx="143.554" cy="104.199" r="6" stroke="#000" stroke-opacity=".2" transform="translate(143.554073, 104.199089) rotate(-222.000000) translate(-143.554073, -104.199089)"/><circle id="Oval-1-Copy-89" cx="150.983" cy="84.054" r="6" stroke="#000" stroke-opacity=".2" transform="translate(150.982519, 84.054159) rotate(-222.000000) translate(-150.982519, -84.054159)"/><circle id="Oval-1-Copy-90" cx="162.648" cy="64.131" r="6" stroke="#000" stroke-opacity=".2" transform="translate(162.647791, 64.131272) rotate(-222.000000) translate(-162.647791, -64.131272)"/><circle id="Oval-1-Copy-91" cx="177.064" cy="45.769" r="6" fill="#D04F02" stroke="#D04F02" transform="translate(177.063600, 45.768689) rotate(-222.000000) translate(-177.063600, -45.768689)"/><circle id="Oval-1-Copy-64" cx="50.444" cy="186.182" r="6" stroke="#000" stroke-opacity=".2" transform="translate(50.444154, 186.182449) rotate(-256.000000) translate(-50.444154, -186.182449)"/><circle id="Oval-1-Copy-65" cx="54.338" cy="207.766" r="6" stroke="#000" stroke-opacity=".2" transform="translate(54.338377, 207.765660) rotate(-256.000000) translate(-54.338377, -207.765660)"/><circle id="Oval-1-Copy-66" cx="60.385" cy="228.104" r="6" stroke="#000" stroke-opacity=".2" transform="translate(60.385410, 228.104342) rotate(-256.000000) translate(-60.385410, -228.104342)"/><circle id="Oval-1-Copy-67" cx="69.857" cy="247.986" r="6" fill="#D04F02" stroke="#D04F02" transform="translate(69.856878, 247.986276) rotate(-256.000000) translate(-69.856878, -247.986276)"/><circle id="Oval-1-Copy-68" cx="81.024" cy="265.199" r="6" stroke="#000" stroke-opacity=".2" transform="translate(81.024407, 265.199245) rotate(-256.000000) translate(-81.024407, -265.199245)"/><circle id="Oval-1-Copy-69" cx="95.905" cy="281.466" r="6" stroke="#000" stroke-opacity=".2" transform="translate(95.904669, 281.466034) rotate(-256.000000) translate(-95.904669, -281.466034)"/><circle id="Oval-1-Copy-70" cx="111.163" cy="294.795" r="6" fill="#D04F02" stroke="#D04F02" transform="translate(111.162991, 294.795211) rotate(-256.000000) translate(-111.162991, -294.795211)"/><circle id="Oval-1-Copy-71" cx="130.041" cy="304.216" r="6" fill="#D04F02" stroke="#D04F02" transform="translate(130.041295, 304.216481) rotate(-256.000000) translate(-130.041295, -304.216481)"/><circle id="Oval-1-Copy-72" cx="150.953" cy="312.066" r="6" fill="#D04F02" stroke="#D04F02" transform="translate(150.953312, 312.066003) rotate(-256.000000) translate(-150.953312, -312.066003)"/><circle id="Oval-1-Copy-73" cx="175.208" cy="312.991" r="6" stroke="#000" stroke-opacity=".2" transform="translate(175.208097, 312.990945) rotate(-256.000000) translate(-175.208097, -312.990945)"/><circle id="Oval-1-Copy-74" cx="204" cy="309.945" r="6" fill="#D04F02" stroke="#D04F02" transform="translate(203.999711, 309.945314) rotate(-256.000000) translate(-203.999711, -309.945314)"/><circle id="Oval-1-Copy-75" cx="151.491" cy="266.368" r="6" fill="#D04F02" stroke="#D04F02" transform="translate(151.490659, 266.368209) rotate(-256.000000) translate(-151.490659, -266.368209)"/><path id="Oval-1-Copy-92" stroke="#000" stroke-opacity=".2" d="M133.243278,259.737775 C136.556987,259.737775 139.243278,257.051483 139.243278,253.737775 C139.243278,250.424066 136.556987,247.737775 133.243278,247.737775 C129.92957,247.737775 127.243278,250.424066 127.243278,253.737775 C127.243278,257.051483 129.92957,259.737775 133.243278,259.737775 Z" transform="translate(133.243278, 253.737775) rotate(-256.000000) translate(-133.243278, -253.737775)"/><path id="Oval-1-Copy-100" fill="#D04F02" stroke="#D04F02" d="M118.31511,243.268661 C121.628819,243.268661 124.31511,240.58237 124.31511,237.268661 C124.31511,233.954953 121.628819,231.268661 118.31511,231.268661 C115.001402,231.268661 112.31511,233.954953 112.31511,237.268661 C112.31511,240.58237 115.001402,243.268661 118.31511,243.268661 Z" transform="translate(118.315110, 237.268661) rotate(-256.000000) translate(-118.315110, -237.268661)"/><circle id="Oval-1-Copy-94" cx="107.793" cy="219.975" r="6" fill="#D04F02" stroke="#D04F02" transform="translate(107.793408, 219.974924) rotate(-256.000000) translate(-107.793408, -219.974924)"/><circle id="Oval-1-Copy-95" cx="99.273" cy="200.574" r="6" stroke="#000" stroke-opacity=".2" transform="translate(99.272917, 200.573862) rotate(-256.000000) translate(-99.272917, -200.573862)"/><circle id="Oval-1-Copy-96" cx="93.628" cy="179.858" r="6" fill="#D04F02" stroke="#D04F02" transform="translate(93.628485, 179.858158) rotate(-256.000000) translate(-93.628485, -179.858158)"/><circle id="Oval-1-Copy-97" cx="92.273" cy="157.877" r="6" stroke="#000" stroke-opacity=".2" transform="translate(92.273465, 157.877168) rotate(-256.000000) translate(-92.273465, -157.877168)"/><circle id="Oval-1-Copy-98" cx="93.014" cy="136.677" r="6" stroke="#000" stroke-opacity=".2" transform="translate(93.013795, 136.676887) rotate(-256.000000) translate(-93.013795, -136.676887)"/><circle id="Oval-1-Copy-99" cx="96.63" cy="114.162" r="6" stroke="#000" stroke-opacity=".2" transform="translate(96.630184, 114.161964) rotate(-256.000000) translate(-96.630184, -114.161964)"/><circle id="Oval-1-Copy-80" cx="174.612" cy="275.853" r="6" fill="#D04F02" stroke="#D04F02" transform="translate(174.611891, 275.853257) rotate(-256.000000) translate(-174.611891, -275.853257)"/><circle id="Oval-1-Copy-81" cx="187.55" cy="295.768" r="6" fill="#D04F02" stroke="#D04F02" transform="translate(187.550308, 295.767916) rotate(-256.000000) translate(-187.550308, -295.767916)"/><circle id="Oval-1-Copy-82" cx="160.865" cy="293.071" r="6" fill="#D04F02" stroke="#D04F02" transform="translate(160.865499, 293.070832) rotate(-256.000000) translate(-160.865499, -293.070832)"/><circle id="Oval-1-Copy-83" cx="139.274" cy="284.596" r="6" stroke="#000" stroke-opacity=".2" transform="translate(139.274463, 284.595741) rotate(-256.000000) translate(-139.274463, -284.595741)"/><circle id="Oval-1-Copy-84" cx="120.88" cy="272.234" r="6" stroke="#000" stroke-opacity=".2" transform="translate(120.880004, 272.233879) rotate(-256.000000) translate(-120.880004, -272.233879)"/><circle id="Oval-1-Copy-85" cx="104.546" cy="257.666" r="6" fill="#D04F02" stroke="#D04F02" transform="translate(104.545602, 257.665760) rotate(-256.000000) translate(-104.545602, -257.665760)"/><circle id="Oval-1-Copy-86" cx="93.408" cy="241.211" r="6" stroke="#000" stroke-opacity=".2" transform="translate(93.407777, 241.210869) rotate(-256.000000) translate(-93.407777, -241.210869)"/><circle id="Oval-1-Copy-87" cx="83.452" cy="223.27" r="6" stroke="#000" stroke-opacity=".2" transform="translate(83.452466, 223.269527) rotate(-256.000000) translate(-83.452466, -223.269527)"/><circle id="Oval-1-Copy-88" cx="76.164" cy="202.901" r="6" stroke="#000" stroke-opacity=".2" transform="translate(76.163511, 202.901141) rotate(-256.000000) translate(-76.163511, -202.901141)"/><circle id="Oval-1-Copy-89" cx="71.057" cy="182.046" r="6" stroke="#000" stroke-opacity=".2" transform="translate(71.057070, 182.046303) rotate(-256.000000) translate(-71.057070, -182.046303)"/><circle id="Oval-1-Copy-90" cx="69.587" cy="159.006" r="6" stroke="#000" stroke-opacity=".2" transform="translate(69.587281, 159.006344) rotate(-256.000000) translate(-69.587281, -159.006344)"/><circle id="Oval-1-Copy-91" cx="71.27" cy="135.722" r="6" stroke="#000" stroke-opacity=".2" transform="translate(71.270302, 135.721855) rotate(-256.000000) translate(-71.270302, -135.721855)"/><circle id="Oval-1-Copy-64" cx="37.772" cy="319.789" r="6" stroke="#000" stroke-opacity=".2" transform="translate(37.771548, 319.789066) rotate(-289.000000) translate(-37.771548, -319.789066)"/><circle id="Oval-1-Copy-65" cx="52.793" cy="336.769" r="6" stroke="#000" stroke-opacity=".2" transform="translate(52.792579, 336.769324) rotate(-289.000000) translate(-52.792579, -336.769324)"/><circle id="Oval-1-Copy-66" cx="70.325" cy="349.827" r="6" stroke="#000" stroke-opacity=".2" transform="translate(70.324597, 349.827359) rotate(-289.000000) translate(-70.324597, -349.827359)"/><circle id="Oval-1-Copy-67" cx="88.097" cy="362.343" r="6" fill="#D04F02" stroke="#D04F02" transform="translate(88.096515, 362.343221) rotate(-289.000000) translate(-88.096515, -362.343221)"/><circle id="Oval-1-Copy-68" cx="107.837" cy="370.697" r="6" stroke="#000" stroke-opacity=".2" transform="translate(107.837248, 370.696959) rotate(-289.000000) translate(-107.837248, -370.696959)"/><circle id="Oval-1-Copy-69" cx="127.793" cy="376.941" r="6" fill="#D04F02" stroke="#D04F02" transform="translate(127.793104, 376.941033) rotate(-289.000000) translate(-127.793104, -376.941033)"/><circle id="Oval-1-Copy-70" cx="148.688" cy="378.265" r="6" fill="#D04F02" stroke="#D04F02" transform="translate(148.688071, 378.264905) rotate(-289.000000) translate(-148.688071, -378.264905)"/><circle id="Oval-1-Copy-71" cx="170.197" cy="376.723" r="6" fill="#D04F02" stroke="#D04F02" transform="translate(170.196579, 376.723057) rotate(-289.000000) translate(-170.196579, -376.723057)"/><circle id="Oval-1-Copy-72" cx="191.921" cy="371.239" r="6" stroke="#000" stroke-opacity=".2" transform="translate(191.920750, 371.239377) rotate(-289.000000) translate(-191.920750, -371.239377)"/><circle id="Oval-1-Copy-73" cx="213.311" cy="358.644" r="6" fill="#D04F02" stroke="#D04F02" transform="translate(213.310923, 358.643667) rotate(-289.000000) translate(-213.310923, -358.643667)"/><circle id="Oval-1-Copy-74" cx="236.093" cy="338.025" r="6" fill="#D04F02" stroke="#D04F02" transform="translate(236.092864, 338.025040) rotate(-289.000000) translate(-236.092864, -338.025040)"/><circle id="Oval-1-Copy-75" cx="167.644" cy="333.166" r="6" fill="#D04F02" stroke="#D04F02" transform="translate(167.643934, 333.165962) rotate(-289.000000) translate(-167.643934, -333.165962)"/><path id="Oval-1-Copy-92" stroke="#000" stroke-opacity=".2" d="M146.300036,337.966785 C149.613744,337.966785 152.300036,335.280493 152.300036,331.966785 C152.300036,328.653076 149.613744,325.966785 146.300036,325.966785 C142.986327,325.966785 140.300036,328.653076 140.300036,331.966785 C140.300036,335.280493 142.986327,337.966785 146.300036,337.966785 Z" transform="translate(146.300036, 331.966785) rotate(-289.000000) translate(-146.300036, -331.966785)"/><path id="Oval-1-Copy-100" fill="#D04F02" stroke="#D04F02" d="M124.516467,333.668397 C127.830176,333.668397 130.516467,330.982105 130.516467,327.668397 C130.516467,324.354688 127.830176,321.668397 124.516467,321.668397 C121.202759,321.668397 118.516467,324.354688 118.516467,327.668397 C118.516467,330.982105 121.202759,333.668397 124.516467,333.668397 Z" transform="translate(124.516467, 327.668397) rotate(-289.000000) translate(-124.516467, -327.668397)"/><circle id="Oval-1-Copy-94" cx="106.273" cy="318.895" r="6" stroke="#000" stroke-opacity=".2" transform="translate(106.273381, 318.895178) rotate(-289.000000) translate(-106.273381, -318.895178)"/><circle id="Oval-1-Copy-95" cx="88.561" cy="307.265" r="6" fill="#D04F02" stroke="#D04F02" transform="translate(88.560920, 307.264670) rotate(-289.000000) translate(-88.560920, -307.264670)"/><circle id="Oval-1-Copy-96" cx="72.545" cy="292.965" r="6" fill="#D04F02" stroke="#D04F02" transform="translate(72.544520, 292.965197) rotate(-289.000000) translate(-72.544520, -292.965197)"/><circle id="Oval-1-Copy-97" cx="59.436" cy="275.268" r="6" stroke="#000" stroke-opacity=".2" transform="translate(59.436399, 275.268384) rotate(-289.000000) translate(-59.436399, -275.268384)"/><circle id="Oval-1-Copy-98" cx="48.511" cy="257.085" r="6" stroke="#000" stroke-opacity=".2" transform="translate(48.510792, 257.085120) rotate(-289.000000) translate(-48.510792, -257.085120)"/><circle id="Oval-1-Copy-99" cx="39.281" cy="236.233" r="6" stroke="#000" stroke-opacity=".2" transform="translate(39.281246, 236.232890) rotate(-289.000000) translate(-39.281246, -236.232890)"/><circle id="Oval-1-Copy-80" cx="193.746" cy="328.367" r="6" fill="#D04F02" stroke="#D04F02" transform="translate(193.745598, 328.366737) rotate(-289.000000) translate(-193.745598, -328.366737)"/><circle id="Oval-1-Copy-81" cx="214.443" cy="338.022" r="6" fill="#D04F02" stroke="#D04F02" transform="translate(214.442967, 338.021809) rotate(-289.000000) translate(-214.442967, -338.021809)"/><circle id="Oval-1-Copy-82" cx="189.594" cy="350.293" r="6" stroke="#000" stroke-opacity=".2" transform="translate(189.594267, 350.293432) rotate(-289.000000) translate(-189.594267, -350.293432)"/><circle id="Oval-1-Copy-83" cx="166.871" cy="354.945" r="6" fill="#D04F02" stroke="#D04F02" transform="translate(166.870635, 354.944944) rotate(-289.000000) translate(-166.870635, -354.944944)"/><circle id="Oval-1-Copy-84" cx="145.711" cy="355.596" r="6" stroke="#000" stroke-opacity=".2" transform="translate(145.710991, 355.595755) rotate(-289.000000) translate(-145.710991, -355.595755)"/><circle id="Oval-1-Copy-85" cx="124.461" cy="351.568" r="6" stroke="#000" stroke-opacity=".2" transform="translate(124.460752, 351.568286) rotate(-289.000000) translate(-124.460752, -351.568286)"/><circle id="Oval-1-Copy-86" cx="104.775" cy="344.54" r="6" fill="#D04F02" stroke="#D04F02" transform="translate(104.774501, 344.540117) rotate(-289.000000) translate(-104.774501, -344.540117)"/><circle id="Oval-1-Copy-87" cx="85.654" cy="333.915" r="6" fill="#D04F02" stroke="#D04F02" transform="translate(85.653718, 333.915292) rotate(-289.000000) translate(-85.653718, -333.915292)"/><circle id="Oval-1-Copy-88" cx="69.447" cy="320.803" r="6" stroke="#000" stroke-opacity=".2" transform="translate(69.447269, 320.802776) rotate(-289.000000) translate(-69.447269, -320.802776)"/><circle id="Oval-1-Copy-89" cx="53.806" cy="305.094" r="6" fill="#D04F02" stroke="#D04F02" transform="translate(53.806288, 305.093604) rotate(-289.000000) translate(-53.806288, -305.093604)"/><circle id="Oval-1-Copy-90" cx="41.025" cy="288.571" r="6" stroke="#000" stroke-opacity=".2" transform="translate(41.025159, 288.571173) rotate(-289.000000) translate(-41.025159, -288.571173)"/><circle id="Oval-1-Copy-91" cx="29.755" cy="268.127" r="6" stroke="#000" stroke-opacity=".2" transform="translate(29.755017, 268.126518) rotate(-289.000000) translate(-29.755017, -268.126518)"/><circle id="Oval-1-Copy-65" cx="100.494" cy="439.327" r="6" stroke="#000" stroke-opacity=".2" transform="translate(100.494273, 439.327071) rotate(-313.000000) translate(-100.494273, -439.327071)"/><circle id="Oval-1-Copy-66" cx="122.228" cy="445.039" r="6" stroke="#000" stroke-opacity=".2" transform="translate(122.228487, 445.038811) rotate(-313.000000) translate(-122.228487, -445.038811)"/><circle id="Oval-1-Copy-67" cx="143.061" cy="447.924" r="6" stroke="#000" stroke-opacity=".2" transform="translate(143.061411, 447.923847) rotate(-313.000000) translate(-143.061411, -447.923847)"/><circle id="Oval-1-Copy-68" cx="164.58" cy="447.933" r="6" stroke="#000" stroke-opacity=".2" transform="translate(164.579693, 447.932824) rotate(-313.000000) translate(-164.579693, -447.932824)"/><circle id="Oval-1-Copy-69" cx="185.943" cy="444.607" r="6" fill="#D04F02" stroke="#D04F02" transform="translate(185.943232, 444.606746) rotate(-313.000000) translate(-185.943232, -444.606746)"/><circle id="Oval-1-Copy-70" cx="205.977" cy="438.231" r="6" stroke="#000" stroke-opacity=".2" transform="translate(205.976938, 438.230960) rotate(-313.000000) translate(-205.976938, -438.230960)"/><circle id="Oval-1-Copy-71" cx="224.999" cy="428.074" r="6" stroke="#000" stroke-opacity=".2" transform="translate(224.998812, 428.074113) rotate(-313.000000) translate(-224.998812, -428.074113)"/><circle id="Oval-1-Copy-72" cx="241.294" cy="414.722" r="6" fill="#D04F02" stroke="#D04F02" transform="translate(241.294134, 414.721697) rotate(-313.000000) translate(-241.294134, -414.721697)"/><circle id="Oval-1-Copy-73" cx="256.119" cy="397.428" r="6" fill="#D04F02" stroke="#D04F02" transform="translate(256.118629, 397.428322) rotate(-313.000000) translate(-256.118629, -397.428322)"/><circle id="Oval-1-Copy-74" cx="267.951" cy="375.24" r="6" fill="#D04F02" stroke="#D04F02" transform="translate(267.951353, 375.239564) rotate(-313.000000) translate(-267.951353, -375.239564)"/><circle id="Oval-1-Copy-75" cx="197.717" cy="391.221" r="6" fill="#D04F02" stroke="#D04F02" transform="translate(197.716760, 391.220909) rotate(-313.000000) translate(-197.716760, -391.220909)"/><path id="Oval-1-Copy-92" fill="#D04F02" stroke="#D04F02" d="M177.73039,404.806752 C181.044098,404.806752 183.73039,402.12046 183.73039,398.806752 C183.73039,395.493043 181.044098,392.806752 177.73039,392.806752 C174.416681,392.806752 171.73039,395.493043 171.73039,398.806752 C171.73039,402.12046 174.416681,404.806752 177.73039,404.806752 Z" transform="translate(177.730390, 398.806752) rotate(-313.000000) translate(-177.730390, -398.806752)"/><path id="Oval-1-Copy-100" stroke="#000" stroke-opacity=".2" d="M157.081798,407.740155 C160.395506,407.740155 163.081798,405.053863 163.081798,401.740155 C163.081798,398.426446 160.395506,395.740155 157.081798,395.740155 C153.768089,395.740155 151.081798,398.426446 151.081798,401.740155 C151.081798,405.053863 153.768089,407.740155 157.081798,407.740155 Z" transform="translate(157.081798, 401.740155) rotate(-313.000000) translate(-157.081798, -401.740155)"/><circle id="Oval-1-Copy-94" cx="134.848" cy="401.146" r="6" stroke="#000" stroke-opacity=".2" transform="translate(134.847520, 401.145552) rotate(-313.000000) translate(-134.847520, -401.145552)"/><circle id="Oval-1-Copy-95" cx="114.936" cy="397.725" r="6" fill="#D04F02" stroke="#D04F02" transform="translate(114.935827, 397.724861) rotate(-313.000000) translate(-114.935827, -397.724861)"/><circle id="Oval-1-Copy-96" cx="94.488" cy="390.176" r="6" stroke="#000" stroke-opacity=".2" transform="translate(94.487998, 390.176099) rotate(-313.000000) translate(-94.487998, -390.176099)"/><circle id="Oval-1-Copy-97" cx="75.315" cy="380.341" r="6" stroke="#000" stroke-opacity=".2" transform="translate(75.315192, 380.340810) rotate(-313.000000) translate(-75.315192, -380.340810)"/><circle id="Oval-1-Copy-98" cx="56.938" cy="368.173" r="6" stroke="#000" stroke-opacity=".2" transform="translate(56.938353, 368.173416) rotate(-313.000000) translate(-56.938353, -368.173416)"/><circle id="Oval-1-Copy-99" cx="40.025" cy="352.878" r="6" stroke="#000" stroke-opacity=".2" transform="translate(40.025377, 352.877951) rotate(-313.000000) translate(-40.025377, -352.877951)"/><circle id="Oval-1-Copy-80" cx="218.103" cy="378.54" r="6" fill="#D04F02" stroke="#D04F02" transform="translate(218.102988, 378.540378) rotate(-313.000000) translate(-218.102988, -378.540378)"/><circle id="Oval-1-Copy-81" cx="243.852" cy="380.536" r="6" stroke="#000" stroke-opacity=".2" transform="translate(243.851592, 380.535610) rotate(-313.000000) translate(-243.851592, -380.535610)"/><circle id="Oval-1-Copy-82" cx="227.056" cy="397.446" r="6" stroke="#000" stroke-opacity=".2" transform="translate(227.056039, 397.446436) rotate(-313.000000) translate(-227.056039, -397.446436)"/><circle id="Oval-1-Copy-83" cx="209.189" cy="409.938" r="6" fill="#D04F02" stroke="#D04F02" transform="translate(209.188909, 409.938337) rotate(-313.000000) translate(-209.188909, -409.938337)"/><circle id="Oval-1-Copy-84" cx="189.803" cy="418.632" r="6" stroke="#000" stroke-opacity=".2" transform="translate(189.803038, 418.632476) rotate(-313.000000) translate(-189.803038, -418.632476)"/><circle id="Oval-1-Copy-85" cx="169.072" cy="424.103" r="6" fill="#D04F02" stroke="#D04F02" transform="translate(169.072142, 424.103260) rotate(-313.000000) translate(-169.072142, -424.103260)"/><circle id="Oval-1-Copy-86" cx="147.823" cy="424.776" r="6" fill="#D04F02" stroke="#D04F02" transform="translate(147.822506, 424.776282) rotate(-313.000000) translate(-147.822506, -424.776282)"/><circle id="Oval-1-Copy-87" cx="127.354" cy="423.354" r="6" stroke="#000" stroke-opacity=".2" transform="translate(127.353579, 423.353953) rotate(-313.000000) translate(-127.353579, -423.353953)"/><circle id="Oval-1-Copy-88" cx="106.301" cy="418.374" r="6" fill="#D04F02" stroke="#D04F02" transform="translate(106.301364, 418.373567) rotate(-313.000000) translate(-106.301364, -418.373567)"/><circle id="Oval-1-Copy-89" cx="85.03" cy="411.298" r="6" stroke="#000" stroke-opacity=".2" transform="translate(85.029858, 411.297830) rotate(-313.000000) translate(-85.029858, -411.297830)"/><circle id="Oval-1-Copy-90" cx="64.906" cy="399.982" r="6" fill="#D04F02" stroke="#D04F02" transform="translate(64.906418, 399.982038) rotate(-313.000000) translate(-64.906418, -399.982038)"/></g></g></svg>