<svg xmlns="http://www.w3.org/2000/svg" xmlns:xlink="http://www.w3.org/1999/xlink" width="84" height="84" version="1.1" viewBox="0 0 84 84"><title>signup-everyone-bg</title><desc>Created with Sketch.</desc><defs><circle id="path-1" cx="41" cy="41" r="41"/><circle id="path-3" cx="41" cy="41" r="41"/></defs><g id="Page-1" fill="none" fill-rule="evenodd" stroke="none" stroke-width="1"><g id="signup-everyone-bg" transform="translate(1.000000, 1.000000)"><mask id="mask-2" fill="#fff"><use xlink:href="#path-1"/></mask><use id="Mask" xlink:href="#path-1"/><rect id="Rectangle-12-Copy-11" width="9" height="20" x="54" y="24" fill="#F6F8F1" stroke="#333" mask="url(#mask-2)"/><rect id="Rectangle-12-Copy-10" width="27" height="34" x="28" y="8" fill="#F6F8F1" stroke="#333" mask="url(#mask-2)"/><rect id="Rectangle-52-Copy-2" width="141" height="20" x="-12" y="70" fill="#F6F8F1" stroke="#333" mask="url(#mask-2)"/><path id="Line-Copy-11" stroke="#333" stroke-linecap="square" d="M-90.5026735,73.5 L96.518013,73.5" mask="url(#mask-2)"/><path id="Line-Copy-13" stroke="#333" stroke-linecap="square" d="M-90.5026735,67.5 L96.518013,67.5" mask="url(#mask-2)"/><path id="Line-Copy-12" stroke="#333" stroke-dasharray="4 8" stroke-linecap="square" d="M-14.5,77.5 L96.518013,77.5" mask="url(#mask-2)"/><rect id="Rectangle-12-Copy-6" width="29" height="46" x="13" y="22" fill="#F6F8F1" stroke="#333" mask="url(#mask-2)"/><rect id="Rectangle-12-Copy-8" width="30" height="20" x="41" y="30" fill="#F6F8F1" stroke="#333" mask="url(#mask-2)"/><path id="Line-Copy-24" stroke="#333" stroke-linecap="square" d="M41.5,49.5 L68.5,49.5" mask="url(#mask-2)"/><path id="Line-Copy-14" stroke="#333" stroke-linecap="square" d="M58.5,16.5 L58.5,23.5" mask="url(#mask-2)"/><path id="Rectangle-32-Copy" fill="#F6F8F1" stroke="#333" d="M58,15.5 C58,15.5 59,14.5 61,14.5 C63,14.5 63,15.5 65,15.5 C67,15.5 67,14.5 67,14.5 L67,20.5 C67,20.5 66.9158437,21.5 65,21.5 C63.0841563,21.5 62.3198649,20.5 61,20.5 C59,20.5 58,21.5 58,21.5 L58,15.5 Z" mask="url(#mask-2)"/><rect id="Rectangle-12-Copy-7" width="6" height="12" x="25" y="56" stroke="#333" mask="url(#mask-2)"/><rect id="Rectangle-12-Copy-12" width="3" height="8" x="17" y="30" stroke="#333" mask="url(#mask-2)"/><rect id="Rectangle-12-Copy-16" width="3" height="8" x="17" y="55" stroke="#333" mask="url(#mask-2)"/><rect id="Rectangle-12-Copy-17" width="3" height="8" x="35" y="55" stroke="#333" mask="url(#mask-2)"/><rect id="Rectangle-12-Copy-13" width="3" height="8" x="26" y="30" stroke="#333" mask="url(#mask-2)"/><rect id="Rectangle-12-Copy-15" width="3" height="8" x="26" y="42" stroke="#333" mask="url(#mask-2)"/><rect id="Rectangle-12-Copy-14" width="3" height="8" x="35" y="30" stroke="#333" mask="url(#mask-2)"/><rect id="Rectangle-12-Copy-9" width="6" height="12" x="52" y="56" stroke="#333" mask="url(#mask-2)"/><path id="Line" stroke="#333" stroke-linecap="square" d="M33.5,17.5 L33.5,13.5" mask="url(#mask-2)"/><path id="Line-Copy-15" stroke="#333" stroke-linecap="square" d="M37.5,17.5 L37.5,13.5" mask="url(#mask-2)"/><path id="Line-Copy-17" stroke="#333" stroke-linecap="square" d="M41.5,17.5 L41.5,13.5" mask="url(#mask-2)"/><path id="Line-Copy-16" stroke="#333" stroke-linecap="square" d="M45.5,17.5 L45.5,13.5" mask="url(#mask-2)"/><path id="Line-Copy-18" stroke="#333" stroke-linecap="square" d="M49.5,17.5 L49.5,13.5" mask="url(#mask-2)"/><path id="Line-Copy-20" stroke="#333" stroke-linecap="square" d="M45.5,26.5 L45.5,22.5" mask="url(#mask-2)"/><path id="Line-Copy-25" stroke="#333" stroke-linecap="square" d="M45.5,45.5 L45.5,30.5" mask="url(#mask-2)"/><path id="Line-Copy-26" stroke="#333" stroke-linecap="square" d="M49.5,47.5293865 L49.5,30.5" mask="url(#mask-2)"/><path id="Line-Copy-27" stroke="#333" stroke-linecap="square" d="M53.5,49.5 L53.5,30.5" mask="url(#mask-2)"/><path id="Line-Copy-28" stroke="#333" stroke-linecap="square" d="M57.5,48.5 L57.5,31" mask="url(#mask-2)"/><path id="Line-Copy-29" stroke="#333" stroke-linecap="square" d="M61.5,47.5302753 L61.5,31" mask="url(#mask-2)"/><path id="Line-Copy-30" stroke="#333" stroke-linecap="square" d="M66,45.5086184 L66,31" mask="url(#mask-2)"/><path id="Line-Copy-19" stroke="#333" stroke-linecap="square" d="M49.5,26.5 L49.5,22.5" mask="url(#mask-2)"/><path id="Line-Copy-21" stroke="#333" stroke-linecap="square" d="M56.5,29.5 L56.5,25.5" mask="url(#mask-2)"/><path id="Line-Copy-22" stroke="#333" stroke-linecap="square" d="M58.5,29.5 L58.5,25.5" mask="url(#mask-2)"/><path id="Line-Copy-23" stroke="#333" stroke-linecap="square" d="M60.5,29.5 L60.5,25.5" mask="url(#mask-2)"/><path id="Line" stroke="#333" stroke-linecap="square" d="M14.5,24.5 L41.5,24.5" mask="url(#mask-2)"/><g id="Rectangle-51-Copy-2-+-Oval-10-Copy-2-Copy-Copy-Copy-Copy" fill="#F6F8F1" stroke="#333" mask="url(#mask-2)"><g transform="translate(60.000000, 41.000000)"><rect id="Rectangle-51-Copy-2" width="4" height="17" x="7" y="13"/><path id="Oval-10-Copy-2" d="M1.53140783,5.65640783 C0.739688555,6.44812711 0.25,7.54187711 0.25,8.75 C0.25,9.95812289 0.739688555,11.0518729 1.53140783,11.8435922 C1.53140783,12.9632523 1.95854378,14.0829124 2.81281566,14.9371843 C3.66708755,15.7914562 4.78674769,16.2185922 5.90640783,16.2185922 C6.69812711,17.0103114 7.79187711,17.5 9,17.5 C10.2081229,17.5 11.3018729,17.0103114 12.0935922,16.2185922 C13.2132523,16.2185922 14.3329124,15.7914562 15.1871843,14.9371843 C16.0414562,14.0829124 16.4685922,12.9632523 16.4685922,11.8435922 C17.2603114,11.0518729 17.75,9.95812289 17.75,8.75 C17.75,7.54187711 17.2603114,6.44812711 16.4685922,5.65640783 C16.4685922,4.53674769 16.0414562,3.41708755 15.1871843,2.56281566 C14.3329124,1.70854378 13.2132523,1.28140783 12.0935922,1.28140783 C11.3018729,0.489688555 10.2081229,0 9,0 C7.79187711,0 6.69812711,0.489688555 5.90640783,1.28140783 C4.78674769,1.28140783 3.66708755,1.70854378 2.81281566,2.56281566 C1.95854378,3.41708755 1.53140783,4.53674769 1.53140783,5.65640783 Z"/></g></g><g id="Rectangle-51-Copy-2-+-Oval-10-Copy-2-Copy-Copy" fill="#F6F8F1" stroke="#333" mask="url(#mask-2)"><g transform="translate(4.000000, 41.000000)"><rect id="Rectangle-51-Copy-2" width="4" height="17" x="7" y="13"/><path id="Oval-10-Copy-2" d="M1.53140783,5.65640783 C0.739688555,6.44812711 0.25,7.54187711 0.25,8.75 C0.25,9.95812289 0.739688555,11.0518729 1.53140783,11.8435922 C1.53140783,12.9632523 1.95854378,14.0829124 2.81281566,14.9371843 C3.66708755,15.7914562 4.78674769,16.2185922 5.90640783,16.2185922 C6.69812711,17.0103114 7.79187711,17.5 9,17.5 C10.2081229,17.5 11.3018729,17.0103114 12.0935922,16.2185922 C13.2132523,16.2185922 14.3329124,15.7914562 15.1871843,14.9371843 C16.0414562,14.0829124 16.4685922,12.9632523 16.4685922,11.8435922 C17.2603114,11.0518729 17.75,9.95812289 17.75,8.75 C17.75,7.54187711 17.2603114,6.44812711 16.4685922,5.65640783 C16.4685922,4.53674769 16.0414562,3.41708755 15.1871843,2.56281566 C14.3329124,1.70854378 13.2132523,1.28140783 12.0935922,1.28140783 C11.3018729,0.489688555 10.2081229,0 9,0 C7.79187711,0 6.69812711,0.489688555 5.90640783,1.28140783 C4.78674769,1.28140783 3.66708755,1.70854378 2.81281566,2.56281566 C1.95854378,3.41708755 1.53140783,4.53674769 1.53140783,5.65640783 Z"/></g></g><g id="Rectangle-51-Copy-2-+-Oval-10-Copy-2-Copy-Copy-Copy" fill="#F6F8F1" stroke="#333" mask="url(#mask-2)"><g transform="translate(33.000000, 41.000000)"><rect id="Rectangle-51-Copy-2" width="4" height="17" x="7" y="13"/><path id="Oval-10-Copy-2" d="M1.53140783,5.65640783 C0.739688555,6.44812711 0.25,7.54187711 0.25,8.75 C0.25,9.95812289 0.739688555,11.0518729 1.53140783,11.8435922 C1.53140783,12.9632523 1.95854378,14.0829124 2.81281566,14.9371843 C3.66708755,15.7914562 4.78674769,16.2185922 5.90640783,16.2185922 C6.69812711,17.0103114 7.79187711,17.5 9,17.5 C10.2081229,17.5 11.3018729,17.0103114 12.0935922,16.2185922 C13.2132523,16.2185922 14.3329124,15.7914562 15.1871843,14.9371843 C16.0414562,14.0829124 16.4685922,12.9632523 16.4685922,11.8435922 C17.2603114,11.0518729 17.75,9.95812289 17.75,8.75 C17.75,7.54187711 17.2603114,6.44812711 16.4685922,5.65640783 C16.4685922,4.53674769 16.0414562,3.41708755 15.1871843,2.56281566 C14.3329124,1.70854378 13.2132523,1.28140783 12.0935922,1.28140783 C11.3018729,0.489688555 10.2081229,0 9,0 C7.79187711,0 6.69812711,0.489688555 5.90640783,1.28140783 C4.78674769,1.28140783 3.66708755,1.70854378 2.81281566,2.56281566 C1.95854378,3.41708755 1.53140783,4.53674769 1.53140783,5.65640783 Z"/></g></g><mask id="mask-4" fill="#fff"><use xlink:href="#path-3"/></mask><use id="Mask" stroke="#333" xlink:href="#path-3"/></g></g></svg>