<svg xmlns="http://www.w3.org/2000/svg" xmlns:xlink="http://www.w3.org/1999/xlink" width="84" height="84" version="1.1" viewBox="0 0 84 84"><title>signup-courts-bg</title><desc>Created with Sketch.</desc><defs><circle id="path-1" cx="41" cy="41" r="41"/><circle id="path-3" cx="41" cy="41" r="41"/></defs><g id="Page-1" fill="none" fill-rule="evenodd" stroke="none" stroke-width="1"><g id="signup-courts-bg" transform="translate(1.000000, 1.000000)"><path id="Path-Copy-6" fill="#F6F8F1" stroke="#333" d="M41,14 L72,29 L72,35 L11,34 L11,29 L41,14 Z"/><mask id="mask-2" fill="#fff"><use xlink:href="#path-1"/></mask><use id="Mask" xlink:href="#path-1"/><path id="Line" stroke="#333" stroke-linecap="square" d="M-15.5,55.5 L95.518013,55.5" mask="url(#mask-2)"/><rect id="Path-Copy" width="67" height="33" x="8" y="41" fill="#F6F8F1" stroke="#333" mask="url(#mask-2)"/><rect id="Path-Copy-5" width="67" height="4" x="8" y="34" fill="#F6F8F1" stroke="#333" mask="url(#mask-2)"/><rect id="Rectangle-1-Copy-4" width="16" height="42" x="33" y="32" fill="#F6F8F1" stroke="#333" mask="url(#mask-2)"/><path id="Line" stroke="#333" stroke-linecap="square" d="M12.5,70.5 L77.5076904,70.5" mask="url(#mask-2)"/><path id="Line-Copy-3" stroke="#333" stroke-linecap="square" d="M4.5,67.5 L94.5055542,67.5" mask="url(#mask-2)"/><path id="Line-Copy-4" stroke="#333" stroke-linecap="square" d="M33.5,64.5 L48.5,64.5" mask="url(#mask-2)"/><rect id="Rectangle-12" width="6" height="12" x="38" y="53" stroke="#333" mask="url(#mask-2)"/><path id="Path-Copy-2" fill="#F6F8F1" stroke="#333" d="M41,18 L75,35 L8,35 L41,18 Z" mask="url(#mask-2)"/><path id="Path-Copy-7" fill="#F6F8F1" stroke="#333" d="M41,25 L61,35 L22,35 L41,25 Z" mask="url(#mask-2)"/><g id="Group" fill="#F6F8F1" stroke="#333" mask="url(#mask-2)"><g transform="translate(12.000000, 37.000000)"><rect id="Rectangle-12-Copy" width="6" height="31" x="0" y="0"/><rect id="Rectangle-12-Copy-2" width="6" height="31" x="10" y="0"/><rect id="Rectangle-12-Copy-3" width="6" height="31" x="41" y="0"/><rect id="Rectangle-12-Copy-4" width="6" height="31" x="51.5" y="0"/></g></g><path id="Line" stroke="#333" stroke-linecap="square" d="M8.5,36.5 L8.5,44.5" mask="url(#mask-2)"/><path id="Line-Copy-6" stroke="#333" stroke-linecap="square" d="M74.5,36.5 L74.5,44.5" mask="url(#mask-2)"/><path id="Line" stroke="#333" stroke-linecap="square" d="M40.5,7.5 L40.5,14.5" mask="url(#mask-2)"/><path id="Rectangle-32" fill="#F6F8F1" stroke="#333" d="M40,6.5 C40,6.5 41,5.5 43,5.5 C45,5.5 45,6.5 47,6.5 C49,6.5 49,5.5 49,5.5 L49,11.5 C49,11.5 48.9158437,12.5 47,12.5 C45.0841563,12.5 44.3198649,11.5 43,11.5 C41,11.5 40,12.5 40,12.5 L40,6.5 Z" mask="url(#mask-2)"/><circle id="Oval-3-Copy-4" cx="41" cy="41" r="4" fill="#F6F8F1" stroke="#333" mask="url(#mask-2)"/><path id="Line" stroke="#333" stroke-linecap="square" d="M33.5,47.5 L48.0602198,47.5" mask="url(#mask-2)"/><mask id="mask-4" fill="#fff"><use xlink:href="#path-3"/></mask><use id="Mask" stroke="#333" xlink:href="#path-3"/></g></g></svg>