<svg xmlns="http://www.w3.org/2000/svg" xmlns:xlink="http://www.w3.org/1999/xlink" width="84" height="84" version="1.1" viewBox="0 0 84 84"><title>Libraries</title><desc>Created with Sketch.</desc><defs><circle id="path-1" cx="41" cy="41" r="41"/></defs><g id="Page-1" fill="none" fill-rule="evenodd" stroke="none" stroke-width="1"><g id="Libraries" transform="translate(1.000000, 1.000000)"><circle id="Oval-18" cx="41.5" cy="12.5" r="5.5" fill="#FFF" stroke="#333"/><mask id="mask-2" fill="#fff"><use xlink:href="#path-1"/></mask><use id="Mask" stroke="#333" xlink:href="#path-1"/><path id="Line" stroke="#333" stroke-linecap="square" d="M-15.5,55.5 L95.518013,55.5" mask="url(#mask-2)"/><path id="Line-Copy" stroke="#333" stroke-linecap="square" d="M-15.5,42.5 L95.518013,42.5" mask="url(#mask-2)"/><rect id="Path-Copy" width="67" height="33" x="8" y="41" fill="#FFF" stroke="#333" mask="url(#mask-2)"/><rect id="Rectangle-1-Copy-5" width="4" height="17" x="33" y="22" fill="#FFF" stroke="#333" mask="url(#mask-2)"/><rect id="Rectangle-1-Copy-7" width="4" height="19" x="39" y="22" fill="#FFF" stroke="#333" mask="url(#mask-2)"/><rect id="Rectangle-1-Copy-8" width="4" height="17" x="45" y="22" fill="#FFF" stroke="#333" mask="url(#mask-2)"/><path id="Line" stroke="#333" stroke-linecap="square" d="M12.5,70.5 L77.5076904,70.5" mask="url(#mask-2)"/><path id="Line-Copy-3" stroke="#333" stroke-linecap="square" d="M4.5,67.5 L94.5055542,67.5" mask="url(#mask-2)"/><path id="Line-Copy-4" stroke="#333" stroke-linecap="square" d="M9.38478556,64.5 L74.5307083,64.5" mask="url(#mask-2)"/><rect id="Rectangle-12-Copy-5" width="14" height="16" x="34" y="49" stroke="#333" mask="url(#mask-2)"/><rect id="Rectangle-12" width="6" height="12" x="38" y="53" stroke="#333" mask="url(#mask-2)"/><path id="Line" stroke="#333" stroke-linecap="square" d="M33.5,19.5 L48.0602198,19.5" mask="url(#mask-2)"/><path id="Rectangle-1-Copy-9" fill="#FFF" stroke="#333" d="M17,28.3157895 C17,28.3157895 17,23.8947369 22,22 C27,23.8947369 27,28.3157895 27,28.3157895 L27,34 L22,37 L17,34 L17,28.3157895 Z" mask="url(#mask-2)"/><path id="Rectangle-1-Copy-10" fill="#FFF" stroke="#333" d="M56,28.3157895 C56,28.3157895 56,23.8947369 61,22 C66,23.8947369 66,28.3157895 66,28.3157895 L66,34 L61,37 L56,34 L56,28.3157895 Z" mask="url(#mask-2)"/><path id="Line" stroke="#333" stroke-linecap="square" d="M17.5,28.5 L25.5622578,28.5" mask="url(#mask-2)"/><path id="Line-Copy-5" stroke="#333" stroke-linecap="square" d="M57,28.5 L65.0622578,28.5" mask="url(#mask-2)"/><g id="Group" stroke="#333" mask="url(#mask-2)"><g transform="translate(8.000000, 10.000000)"><path id="Oval-3-Copy" fill="#FFF" fill-rule="evenodd" d="M67,33.5 C67,14.9984609 52.0015391,0 33.5,0 C14.9984609,0 0,14.9984609 0,33.5 L67,33.5 Z"/><path id="Oval-3-Copy-2" fill="#FFF" fill-rule="evenodd" d="M57,33.5 C57,14.9984609 48,0 33.5,0 C19,0 10,14.9984609 10,33.5 L57,33.5 Z"/><path id="Oval-3-Copy-3" fill="#FFF" fill-rule="evenodd" d="M47,33.5 C47,14.9984609 42.0000001,0 33.5,0 C24.9999999,0 20,14.9984609 20,33.5 L47,33.5 Z"/><path id="Line" fill="none" stroke-linecap="square" d="M33.5,0.5 L33.5,32.6360817"/></g></g><rect id="Path-Copy-3" width="67" height="5" x="8" y="42" fill="#FFF" stroke="#333" mask="url(#mask-2)"/><rect id="Rectangle-51" width="4" height="15" x="17" y="59" fill="#FFF" stroke="#333" mask="url(#mask-2)"/><rect id="Rectangle-51-Copy" width="4" height="15" x="61" y="59" fill="#FFF" stroke="#333" mask="url(#mask-2)"/><path id="Oval-10" fill="#FFF" stroke="#333" d="M16,53 C14.3431458,53 13,54.3431458 13,56 C13,57.6568542 14.3431458,59 16,59 C16,60.6568542 17.3431458,62 19,62 C20.6568542,62 22,60.6568542 22,59 C23.6568542,59 25,57.6568542 25,56 C25,54.3431458 23.6568542,53 22,53 C22,51.3431458 20.6568542,50 19,50 C17.3431458,50 16,51.3431458 16,53 Z" mask="url(#mask-2)"/><path id="Oval-10-Copy" fill="#FFF" stroke="#333" d="M60,53 C58.3431458,53 57,54.3431458 57,56 C57,57.6568542 58.3431458,59 60,59 C60,60.6568542 61.3431458,62 63,62 C64.6568542,62 66,60.6568542 66,59 C67.6568542,59 69,57.6568542 69,56 C69,54.3431458 67.6568542,53 66,53 C66,51.3431458 64.6568542,50 63,50 C61.3431458,50 60,51.3431458 60,53 Z" mask="url(#mask-2)"/><path id="Line" stroke="#333" stroke-linecap="square" d="M13.5,42.5 L13.5,46.5" mask="url(#mask-2)"/><path id="Line-Copy-2" stroke="#333" stroke-linecap="square" d="M23.5,42.5 L23.5,46.5" mask="url(#mask-2)"/><path id="Line-Copy-9" stroke="#333" stroke-linecap="square" d="M59.5,42.5 L59.5,46.5" mask="url(#mask-2)"/><path id="Line-Copy-10" stroke="#333" stroke-linecap="square" d="M69.5,42.5 L69.5,46.5" mask="url(#mask-2)"/><path id="Line-Copy-7" stroke="#333" stroke-linecap="square" d="M35.5,42.5 L35.5,46.5" mask="url(#mask-2)"/><path id="Line-Copy-8" stroke="#333" stroke-linecap="square" d="M48.5,42.5 L48.5,46.5" mask="url(#mask-2)"/></g></g></svg>