<svg xmlns="http://www.w3.org/2000/svg" xmlns:xlink="http://www.w3.org/1999/xlink" width="84" height="84" version="1.1" viewBox="0 0 84 84"><title>Academics</title><desc>Created with Sketch.</desc><defs><circle id="path-1" cx="41" cy="41" r="41"/></defs><g id="Page-1" fill="none" fill-rule="evenodd" stroke="none" stroke-width="1"><g id="Academics" transform="translate(1.000000, 1.000000)"><mask id="mask-2" fill="#fff"><use xlink:href="#path-1"/></mask><use id="Mask" stroke="#333" xlink:href="#path-1"/><rect id="Path-Copy-3" width="22" height="32" x="-4" y="38" fill="#FFF" stroke="#333" mask="url(#mask-2)"/><rect id="Path-Copy-4" width="22" height="32" x="71" y="38" fill="#FFF" stroke="#333" mask="url(#mask-2)"/><path id="Line" stroke="#333" stroke-linecap="square" d="M-15.5,55.5 L98.9377594,55.5" mask="url(#mask-2)"/><rect id="Path-Copy" width="67" height="26" x="8" y="47" fill="#FFF" stroke="#333" mask="url(#mask-2)"/><rect id="Rectangle-1-Copy-4" width="16" height="35" x="33" y="38" fill="#FFF" stroke="#333" mask="url(#mask-2)"/><rect id="Rectangle-1-Copy-5" width="4" height="17" x="33" y="21" fill="#FFF" stroke="#333" mask="url(#mask-2)"/><rect id="Rectangle-1-Copy-7" width="4" height="19" x="39" y="21" fill="#FFF" stroke="#333" mask="url(#mask-2)"/><rect id="Rectangle-1-Copy-8" width="4" height="17" x="45" y="21" fill="#FFF" stroke="#333" mask="url(#mask-2)"/><path id="Rectangle-1-Copy-6" fill="#FFF" stroke="#333" d="M33,18 C33,18 33,11 41,8 C49,11 49,18 49,18 L49,22 L33,22 L33,18 Z" mask="url(#mask-2)"/><path id="Path" fill="#FFF" stroke="#333" d="M48,30 L75,30 L75,48 L41,48 L8,48 L8,30 L34,30 L34,33 L41,37 L48,33 L48,30 Z" mask="url(#mask-2)"/><path id="Line" stroke="#333" stroke-linecap="square" d="M12.5,69.5 L77.5076904,69.5" mask="url(#mask-2)"/><path id="Line-Copy-3" stroke="#333" stroke-linecap="square" d="M4.5,66.5 L94.5055542,66.5" mask="url(#mask-2)"/><path id="Line-Copy-4" stroke="#333" stroke-linecap="square" d="M33.5,63.5 L48.5,63.5" mask="url(#mask-2)"/><rect id="Rectangle-12" width="6" height="12" x="38" y="52" stroke="#333" mask="url(#mask-2)"/><rect id="Rectangle-12-Copy" width="6" height="23" x="12" y="47" fill="#FFF" stroke="#333" mask="url(#mask-2)"/><rect id="Rectangle-12-Copy-2" width="6" height="23" x="22" y="47" fill="#FFF" stroke="#333" mask="url(#mask-2)"/><path id="Line" stroke="#333" stroke-linecap="square" d="M33.5,18.5 L48.0602198,18.5" mask="url(#mask-2)"/><path id="Rectangle-1-Copy-9" fill="#FFF" stroke="#333" d="M17,27.3157895 C17,27.3157895 17,22.8947369 22,21 C27,22.8947369 27,27.3157895 27,27.3157895 L27,33 L22,36 L17,33 L17,27.3157895 Z" mask="url(#mask-2)"/><path id="Rectangle-1-Copy-10" fill="#FFF" stroke="#333" d="M56,27.3157895 C56,27.3157895 56,22.8947369 61,21 C66,22.8947369 66,27.3157895 66,27.3157895 L66,33 L61,36 L56,33 L56,27.3157895 Z" mask="url(#mask-2)"/><path id="Path-Copy-2" fill="#FFF" stroke="#333" d="M41,29 L75,46 L8,46 L41,29 Z" mask="url(#mask-2)"/><path id="Line" stroke="#333" stroke-linecap="square" d="M17.5,27.5 L25.5622578,27.5" mask="url(#mask-2)"/><path id="Line-Copy-5" stroke="#333" stroke-linecap="square" d="M57,27.5 L65.0622578,27.5" mask="url(#mask-2)"/><rect id="Rectangle-12-Copy-3" width="6" height="23" x="54" y="47" fill="#FFF" stroke="#333" mask="url(#mask-2)"/><rect id="Rectangle-12-Copy-4" width="6" height="23" x="64" y="47" fill="#FFF" stroke="#333" mask="url(#mask-2)"/><circle id="Oval-3" cx="41" cy="39" r="4" fill="#FFF" stroke="#333" mask="url(#mask-2)"/><path id="Rectangle-52" fill="#FFF" stroke="#333" d="M17,47 L23,47 L23,59 L20,57 L17,59 L17,47 Z" mask="url(#mask-2)"/><path id="Rectangle-52-Copy" fill="#FFF" stroke="#333" d="M59,47 L65,47 L65,59 L62,57 L59,59 L59,47 Z" mask="url(#mask-2)"/></g></g></svg>