<svg xmlns="http://www.w3.org/2000/svg" xmlns:xlink="http://www.w3.org/1999/xlink" width="84" height="16" version="1.1" viewBox="0 0 84 16"><title>perma-ui-flag</title><desc>Created with Sketch.</desc><g id="Page-1" fill="none" fill-rule="evenodd" stroke="none" stroke-width="1"><g id="perma-ui-flag"><g id="Line-+-Path-605" transform="translate(1.000000, 1.000000)"><path id="Line" stroke="#DA681E" stroke-linecap="square" d="M5.31005859,2.17712402 L0.352941176,13.65"/><path id="Path-605" fill="#DA681E" d="M5.64705882,0 L12,7 L2.82352941,7 L5.64705882,0 Z"/></g><g id="Line-+-Path-605-Copy-2" transform="translate(29.000000, 1.000000)"><path id="Line" stroke="#0083FF" stroke-linecap="square" d="M5.46630859,1.76904297 L0.352941176,13.65"/><path id="Path-605" fill="#0083FF" d="M5.64705882,0 L12,7 L2.82352941,7 L5.64705882,0 Z"/></g><g id="Line-+-Path-605-Copy-4" transform="translate(57.000000, 1.000000)"><path id="Line" stroke="#BBB" stroke-linecap="square" d="M5.27209473,2.27685547 L0.352941176,13.65"/><path id="Path-605" fill="#BBB" d="M5.64705882,0 L12,7 L2.82352941,7 L5.64705882,0 Z"/></g><g id="Line-+-Path-605-Copy" transform="translate(15.000000, 1.000000)"><path id="Line" stroke="#222" stroke-linecap="square" d="M5.70056152,1.25927734 L0.352941176,13.65"/><path id="Path-605" fill="#222" d="M5.64705882,0 L12,7 L2.82352941,7 L5.64705882,0 Z"/></g><g id="Line-+-Path-605-Copy-3" transform="translate(43.000000, 1.000000)"><path id="Line" stroke="#2D76EE" stroke-linecap="square" d="M5.29760742,2.16174316 L0.352941176,13.65"/><path id="Path-605" fill="#2D76EE" d="M5.64705882,0 L12,7 L2.82352941,7 L5.64705882,0 Z"/></g><g id="Line-+-Path-605-Copy-5" transform="translate(71.000000, 1.000000)"><path id="Line" stroke="#FFF" stroke-linecap="square" d="M5.53320312,1.69091797 L0.352941176,13.65"/><path id="Path-605" fill="#FFF" d="M5.64705882,0 L12,7 L2.82352941,7 L5.64705882,0 Z"/></g></g></g></svg>